<svg xmlns="http://www.w3.org/2000/svg" width="25" height="25" viewBox="0 0 25 25" fill="none">
<path d="M10.5799 8.25835C11.6569 6.32735 12.1949 5.36135 12.9999 5.36135C13.8049 5.36135 14.3429 6.32735 15.4199 8.25835L15.6979 8.75835C16.0039 9.30735 16.1579 9.58135 16.3959 9.76235C16.6339 9.94335 16.9309 10.0104 17.5259 10.1454L18.0659 10.2674C20.1569 10.7404 21.2029 10.9774 21.4509 11.7774C21.6999 12.5774 20.9869 13.4104 19.5609 15.0774L19.1929 15.5074C18.7879 15.9814 18.5859 16.2184 18.4939 16.5114C18.4039 16.8044 18.4339 17.1204 18.4949 17.7514L18.5509 18.3274C18.7669 20.5514 18.8739 21.6634 18.2229 22.1574C17.5719 22.6524 16.5929 22.2014 14.6359 21.3004L14.1289 21.0664C13.5729 20.8104 13.2949 20.6824 12.9999 20.6824C12.7049 20.6824 12.4269 20.8104 11.8699 21.0664L11.3639 21.3004C9.4069 22.2004 8.4279 22.6524 7.7769 22.1574C7.1259 21.6634 7.2339 20.5514 7.4489 18.3274L7.5049 17.7524C7.5659 17.1204 7.5969 16.8044 7.5049 16.5124C7.4149 16.2184 7.2119 15.9824 6.8069 15.5084L6.4379 15.0764C5.0129 13.4104 4.2999 12.5764 4.5479 11.7764C4.7979 10.9764 5.8429 10.7404 7.9339 10.2674L8.4739 10.1454C9.0689 10.0104 9.3659 9.94335 9.6039 9.76235C9.8429 9.58235 9.9959 9.30735 10.3019 8.75835L10.5799 8.25835ZM5.3679 2.86135C5.3979 2.75635 5.5849 2.75535 5.6159 2.86135C5.7559 3.34335 6.0159 4.05535 6.4089 4.44635C6.8019 4.83635 7.5169 5.09235 7.9989 5.22935C8.1059 5.25935 8.1059 5.44635 8.0009 5.47735C7.5189 5.61735 6.8059 5.87735 6.4149 6.27035C6.0249 6.66335 5.7699 7.37835 5.6329 7.86035C5.6029 7.96735 5.4149 7.96735 5.3839 7.86235C5.2439 7.38035 4.9839 6.66735 4.5909 6.27635C4.1979 5.88635 3.4839 5.63135 3.0009 5.49435C2.8949 5.46435 2.8939 5.27635 2.9999 5.24535C3.4819 5.10535 4.1939 4.84535 4.5849 4.45235C4.9749 4.05935 5.2309 3.34435 5.3679 2.86135Z" fill="#3363FF"/>
<path fill-rule="evenodd" clip-rule="evenodd" d="M19.5 3.61133C19.6989 3.61133 19.8897 3.69035 20.0303 3.831C20.171 3.97165 20.25 4.16242 20.25 4.36133V4.61133H20.5C20.6989 4.61133 20.8897 4.69035 21.0303 4.831C21.171 4.97165 21.25 5.16242 21.25 5.36133C21.25 5.56024 21.171 5.75101 21.0303 5.89166C20.8897 6.03231 20.6989 6.11133 20.5 6.11133H20.25V6.36133C20.25 6.56024 20.171 6.75101 20.0303 6.89166C19.8897 7.03231 19.6989 7.11133 19.5 7.11133C19.3011 7.11133 19.1103 7.03231 18.9697 6.89166C18.829 6.75101 18.75 6.56024 18.75 6.36133V6.11133H18.5C18.3011 6.11133 18.1103 6.03231 17.9697 5.89166C17.829 5.75101 17.75 5.56024 17.75 5.36133C17.75 5.16242 17.829 4.97165 17.9697 4.831C18.1103 4.69035 18.3011 4.61133 18.5 4.61133H18.75V4.36133C18.75 4.16242 18.829 3.97165 18.9697 3.831C19.1103 3.69035 19.3011 3.61133 19.5 3.61133Z" fill="#3363FF"/>
</svg>