<svg width="113" height="33" viewBox="0 0 113 33" fill="none" xmlns="http://www.w3.org/2000/svg">
<g clip-path="url(#clip0_2006_786)">
<path d="M39.3558 18.1581C38.4054 17.6311 37.9051 17.2044 37.9051 16.6021C37.9051 15.824 38.5805 15.3472 39.656 15.3472C40.9066 15.3472 42.0071 15.8742 42.0071 15.8742L42.8825 13.1887C42.8825 13.1887 42.0821 12.5613 39.706 12.5613C36.4044 12.5613 34.1033 14.4687 34.1033 17.1291C34.1033 18.635 35.1788 19.7895 36.6045 20.6177C37.7551 21.2703 38.1553 21.7472 38.1553 22.4248C38.1553 23.1527 37.58 23.7299 36.5045 23.7299C34.9037 23.7299 33.403 22.9017 33.403 22.9017L32.4776 25.5872C32.4776 25.5872 33.8782 26.5158 36.2043 26.5158C39.6059 26.5158 42.0321 24.8342 42.0321 21.8225C42.0821 20.166 40.8315 19.0115 39.3558 18.1581Z" fill="white"/>
<path d="M52.9122 12.5111C51.2364 12.5111 49.9358 13.3142 48.9103 14.5189L48.8603 14.4938L50.311 6.86401H46.5092L42.8325 26.2648H46.6092L47.8598 19.6389C48.3601 17.1291 49.6357 15.5981 50.8363 15.5981C51.6867 15.5981 52.0118 16.1754 52.0118 17.0036C52.0118 17.5307 51.9618 18.1581 51.8367 18.6852L50.4111 26.2899H54.1878L55.6635 18.4593C55.8386 17.6311 55.9387 16.6522 55.9387 15.9746C55.9887 13.7911 54.8882 12.5111 52.9122 12.5111Z" fill="white"/>
<path d="M64.5428 12.5112C59.9906 12.5112 56.9642 16.6273 56.9642 21.2202C56.9642 24.1567 58.765 26.541 62.1667 26.541C66.6438 26.541 69.6452 22.5253 69.6452 17.832C69.6702 15.0963 68.0945 12.5112 64.5428 12.5112ZM62.6919 23.6046C61.3913 23.6046 60.866 22.5002 60.866 21.1199C60.866 18.9363 61.9916 15.3975 64.0425 15.3975C65.3932 15.3975 65.8184 16.552 65.8184 17.6814C65.8184 20.0406 64.6929 23.6046 62.6919 23.6046Z" fill="white"/>
<path d="M79.3498 12.5112C76.7986 12.5112 75.3479 14.7701 75.3479 14.7701H75.2979L75.523 12.7371H72.1714C71.9963 14.1175 71.6962 16.2006 71.396 17.7818L68.7698 31.6359H72.5466L73.5971 26.014H73.6721C73.6721 26.014 74.4475 26.5159 75.8982 26.5159C80.3503 26.5159 83.2517 21.9481 83.2517 17.3301C83.2517 14.7952 82.1261 12.5112 79.3498 12.5112ZM75.7481 23.6799C74.7726 23.6799 74.1974 23.1277 74.1974 23.1277L74.8227 19.5889C75.2729 17.2297 76.4985 15.6485 77.7991 15.6485C78.9496 15.6485 79.2998 16.7277 79.2998 17.7316C79.2998 20.1661 77.8491 23.6799 75.7481 23.6799Z" fill="white"/>
<path d="M88.6542 7.06494C87.4536 7.06494 86.4782 8.01867 86.4782 9.27357C86.4782 10.403 87.1785 11.181 88.254 11.181H88.3041C89.4796 11.181 90.5051 10.3779 90.5301 8.97239C90.5551 7.84298 89.8048 7.06494 88.6542 7.06494Z" fill="white"/>
<path d="M83.3517 26.2648H87.1535L89.7297 12.8123H85.9029L83.3517 26.2648Z" fill="white"/>
<path d="M99.3343 12.7872H96.708L96.8331 12.1597C97.0582 10.8546 97.8085 9.7001 99.0841 9.7001C99.7595 9.7001 100.285 9.90088 100.285 9.90088L101.035 6.93931C101.035 6.93931 100.385 6.61304 98.9841 6.61304C97.6334 6.61304 96.3078 6.98951 95.2823 7.86794C93.9817 8.97225 93.3814 10.5534 93.0813 12.1597L92.9812 12.7872H91.2304L90.6802 15.6483H92.431L90.43 26.2648H94.2068L96.2078 15.6483H98.809L99.3343 12.7872Z" fill="white"/>
<path d="M108.439 12.8123C108.439 12.8123 106.062 18.7856 105.012 22.0483H104.962C104.887 20.9942 104.036 12.8123 104.036 12.8123H100.06L102.336 25.1605C102.386 25.4366 102.361 25.6123 102.261 25.7879C101.81 26.6413 101.085 27.4695 100.21 28.0719C99.5093 28.5989 98.709 28.9252 98.0837 29.1511L99.1342 32.3636C99.9095 32.1879 101.485 31.5605 102.836 30.3056C104.562 28.6742 106.162 26.1895 107.788 22.7762L112.415 12.8123H108.439Z" fill="white"/>
<path d="M19.4468 4.07818C19.4468 4.07818 19.0967 4.17857 18.5214 4.35426C18.4213 4.02798 18.2713 3.65151 18.0712 3.24995C17.4209 1.99504 16.4454 1.3174 15.2949 1.3174C15.2198 1.3174 15.1448 1.3174 15.0447 1.34249C15.0197 1.2923 14.9697 1.2672 14.9447 1.217C14.4445 0.664847 13.7941 0.413867 13.0188 0.438965C11.5181 0.489161 10.0174 1.56838 8.81678 3.50093C7.96638 4.85622 7.31607 6.56289 7.14099 7.89308C5.41517 8.42014 4.2146 8.79661 4.18959 8.82171C3.31417 9.09779 3.28916 9.12289 3.18911 9.95112C3.11408 10.5786 0.812988 28.2476 0.812988 28.2476L19.722 31.5354V4.05308C19.5719 4.05308 19.4968 4.07818 19.4468 4.07818ZM15.0697 5.43347C14.0693 5.73465 12.9688 6.08602 11.8932 6.4123C12.1934 5.23269 12.7937 4.05308 13.494 3.27504C13.7691 2.99896 14.1443 2.67269 14.5695 2.47191C14.9947 3.37544 15.0948 4.60524 15.0697 5.43347ZM13.0188 1.46798C13.3689 1.46798 13.6691 1.54328 13.9192 1.69387C13.519 1.89465 13.1188 2.22093 12.7436 2.5974C11.7932 3.62642 11.0679 5.23269 10.7677 6.76367C9.86728 7.03975 8.96685 7.31583 8.14146 7.56681C8.69172 5.1574 10.7177 1.51818 13.0188 1.46798ZM10.1174 15.2719C10.2174 16.8782 14.4445 17.2296 14.6946 21.0194C14.8697 24.006 13.1188 26.039 10.5926 26.1896C7.54118 26.3903 5.86538 24.5833 5.86538 24.5833L6.51569 21.8225C6.51569 21.8225 8.19149 23.1025 9.54213 23.0021C10.4175 22.9519 10.7427 22.2241 10.7177 21.7221C10.5926 19.6139 7.14099 19.7394 6.91588 16.2758C6.71579 13.3645 8.61669 10.428 12.8187 10.1519C14.4445 10.0515 15.2698 10.4531 15.2698 10.4531L14.3194 14.0672C14.3194 14.0672 13.2439 13.5652 11.9683 13.6656C10.1174 13.7911 10.0924 14.9707 10.1174 15.2719ZM16.0702 5.1323C16.0702 4.37936 15.9702 3.30014 15.62 2.39661C16.7706 2.62249 17.3208 3.90249 17.5709 4.68053C17.1207 4.80602 16.6205 4.95661 16.0702 5.1323Z" fill="white"/>
<path d="M20.297 31.4852L28.1508 29.5276C28.1508 29.5276 24.7742 6.61307 24.7492 6.46248C24.7241 6.31189 24.5991 6.2115 24.474 6.2115C24.349 6.2115 22.1479 6.16131 22.1479 6.16131C22.1479 6.16131 20.7973 4.85621 20.297 4.35425V31.4852Z" fill="white"/>
</g>
<defs>
<clipPath id="clip0_2006_786">
<rect width="111.628" height="32" fill="white" transform="translate(0.737976 0.36377)"/>
</clipPath>
</defs>
</svg>
