<svg xmlns="http://www.w3.org/2000/svg" xmlns:xlink="http://www.w3.org/1999/xlink" zoomAndPan="magnify" viewBox="0 0 810 187.499995" height="250" preserveAspectRatio="xMidYMid meet" version="1.0"><defs><g/><clipPath id="a18f477c54"><path d="M 1.078125 0 L 808.921875 0 L 808.921875 187 L 1.078125 187 Z M 1.078125 0 " clip-rule="nonzero"/></clipPath><clipPath id="675debcba9"><path d="M 101 71.671875 L 137 71.671875 L 137 83 L 101 83 Z M 101 71.671875 " clip-rule="nonzero"/></clipPath><clipPath id="47486960b0"><path d="M 87.007812 102 L 137 102 L 137 113.210938 L 87.007812 113.210938 Z M 87.007812 102 " clip-rule="nonzero"/></clipPath></defs><g clip-path="url(#675debcba9)"><path fill="#ffffff" d="M 136.484375 82.863281 L 101.421875 82.863281 L 106.492188 71.671875 L 117.914062 71.671875 C 125.5 71.671875 132.570312 75.730469 136.21875 82.378906 C 136.316406 82.53125 136.394531 82.695312 136.484375 82.863281 Z M 136.484375 82.863281 " fill-opacity="1" fill-rule="nonzero"/></g><path fill="#ffffff" d="M 111.5625 86.667969 L 138.167969 86.667969 C 138.167969 86.667969 140.285156 90.890625 138.167969 98.066406 L 106.492188 98.066406 Z M 111.5625 86.667969 " fill-opacity="1" fill-rule="nonzero"/><g clip-path="url(#47486960b0)"><path fill="#ffffff" d="M 92.136719 102.289062 L 136.484375 102.289062 C 136.484375 102.289062 132.867188 110.546875 123.304688 112.777344 C 121.828125 113.117188 120.320312 113.273438 118.796875 113.273438 L 87.0625 113.273438 Z M 92.136719 102.289062 " fill-opacity="1" fill-rule="nonzero"/></g><g fill="#ffffff" fill-opacity="1"><g transform="translate(169.093377, 107.485862)"><g><path d="M 4.5 -27.609375 L 15.734375 -27.609375 C 18.648438 -27.609375 21.222656 -27.019531 23.453125 -25.84375 C 25.691406 -24.675781 27.429688 -23.046875 28.671875 -20.953125 C 29.910156 -18.867188 30.53125 -16.484375 30.53125 -13.796875 C 30.53125 -11.117188 29.910156 -8.734375 28.671875 -6.640625 C 27.429688 -4.554688 25.691406 -2.925781 23.453125 -1.75 C 21.222656 -0.582031 18.648438 0 15.734375 0 L 4.5 0 Z M 15.578125 -2.53125 C 17.992188 -2.53125 20.109375 -3.007812 21.921875 -3.96875 C 23.742188 -4.925781 25.148438 -6.25 26.140625 -7.9375 C 27.140625 -9.632812 27.640625 -11.585938 27.640625 -13.796875 C 27.640625 -16.003906 27.140625 -17.957031 26.140625 -19.65625 C 25.148438 -21.351562 23.742188 -22.679688 21.921875 -23.640625 C 20.109375 -24.597656 17.992188 -25.078125 15.578125 -25.078125 L 7.421875 -25.078125 L 7.421875 -2.53125 Z M 15.578125 -2.53125 "/></g></g></g><g fill="#ffffff" fill-opacity="1"><g transform="translate(209.585285, 107.485862)"><g><path d="M 23.34375 0 L 17.03125 -8.875 C 16.320312 -8.789062 15.585938 -8.75 14.828125 -8.75 L 7.421875 -8.75 L 7.421875 0 L 4.5 0 L 4.5 -27.609375 L 14.828125 -27.609375 C 18.347656 -27.609375 21.109375 -26.765625 23.109375 -25.078125 C 25.109375 -23.398438 26.109375 -21.085938 26.109375 -18.140625 C 26.109375 -15.984375 25.5625 -14.160156 24.46875 -12.671875 C 23.375 -11.191406 21.816406 -10.125 19.796875 -9.46875 L 26.546875 0 Z M 14.75 -11.234375 C 17.476562 -11.234375 19.566406 -11.835938 21.015625 -13.046875 C 22.460938 -14.265625 23.1875 -15.960938 23.1875 -18.140625 C 23.1875 -20.378906 22.460938 -22.09375 21.015625 -23.28125 C 19.566406 -24.476562 17.476562 -25.078125 14.75 -25.078125 L 7.421875 -25.078125 L 7.421875 -11.234375 Z M 14.75 -11.234375 "/></g></g></g><g fill="#ffffff" fill-opacity="1"><g transform="translate(246.016308, 107.485862)"><g><path d="M 16.5625 0.234375 C 13.832031 0.234375 11.351562 -0.375 9.125 -1.59375 C 6.90625 -2.820312 5.171875 -4.5 3.921875 -6.625 C 2.671875 -8.75 2.046875 -11.140625 2.046875 -13.796875 C 2.046875 -16.453125 2.671875 -18.84375 3.921875 -20.96875 C 5.171875 -23.101562 6.90625 -24.78125 9.125 -26 C 11.351562 -27.226562 13.832031 -27.84375 16.5625 -27.84375 C 19.300781 -27.84375 21.765625 -27.238281 23.953125 -26.03125 C 26.148438 -24.820312 27.878906 -23.144531 29.140625 -21 C 30.398438 -18.851562 31.03125 -16.453125 31.03125 -13.796875 C 31.03125 -11.140625 30.398438 -8.738281 29.140625 -6.59375 C 27.878906 -4.457031 26.148438 -2.785156 23.953125 -1.578125 C 21.765625 -0.367188 19.300781 0.234375 16.5625 0.234375 Z M 16.5625 -2.359375 C 18.75 -2.359375 20.722656 -2.851562 22.484375 -3.84375 C 24.242188 -4.832031 25.625 -6.195312 26.625 -7.9375 C 27.625 -9.6875 28.125 -11.640625 28.125 -13.796875 C 28.125 -15.953125 27.625 -17.90625 26.625 -19.65625 C 25.625 -21.40625 24.242188 -22.769531 22.484375 -23.75 C 20.722656 -24.738281 18.75 -25.234375 16.5625 -25.234375 C 14.382812 -25.234375 12.40625 -24.738281 10.625 -23.75 C 8.851562 -22.769531 7.460938 -21.40625 6.453125 -19.65625 C 5.441406 -17.90625 4.9375 -15.953125 4.9375 -13.796875 C 4.9375 -11.640625 5.441406 -9.6875 6.453125 -7.9375 C 7.460938 -6.195312 8.851562 -4.832031 10.625 -3.84375 C 12.40625 -2.851562 14.382812 -2.359375 16.5625 -2.359375 Z M 16.5625 -2.359375 "/></g></g></g><g fill="#ffffff" fill-opacity="1"><g transform="translate(287.020764, 107.485862)"><g><path d="M 14.828125 -27.609375 C 18.347656 -27.609375 21.109375 -26.765625 23.109375 -25.078125 C 25.109375 -23.398438 26.109375 -21.085938 26.109375 -18.140625 C 26.109375 -15.191406 25.109375 -12.882812 23.109375 -11.21875 C 21.109375 -9.550781 18.347656 -8.71875 14.828125 -8.71875 L 7.421875 -8.71875 L 7.421875 0 L 4.5 0 L 4.5 -27.609375 Z M 14.75 -11.28125 C 17.476562 -11.28125 19.566406 -11.878906 21.015625 -13.078125 C 22.460938 -14.273438 23.1875 -15.960938 23.1875 -18.140625 C 23.1875 -20.378906 22.460938 -22.09375 21.015625 -23.28125 C 19.566406 -24.476562 17.476562 -25.078125 14.75 -25.078125 L 7.421875 -25.078125 L 7.421875 -11.28125 Z M 14.75 -11.28125 "/></g></g></g><g fill="#ffffff" fill-opacity="1"><g transform="translate(323.254654, 107.485862)"><g><path d="M 12.109375 0.234375 C 10.054688 0.234375 8.085938 -0.09375 6.203125 -0.75 C 4.328125 -1.40625 2.878906 -2.273438 1.859375 -3.359375 L 3 -5.59375 C 4 -4.59375 5.328125 -3.785156 6.984375 -3.171875 C 8.640625 -2.554688 10.347656 -2.25 12.109375 -2.25 C 14.578125 -2.25 16.425781 -2.703125 17.65625 -3.609375 C 18.894531 -4.515625 19.515625 -5.691406 19.515625 -7.140625 C 19.515625 -8.242188 19.179688 -9.125 18.515625 -9.78125 C 17.847656 -10.4375 17.023438 -10.941406 16.046875 -11.296875 C 15.078125 -11.648438 13.722656 -12.039062 11.984375 -12.46875 C 9.910156 -12.988281 8.253906 -13.488281 7.015625 -13.96875 C 5.785156 -14.457031 4.726562 -15.203125 3.84375 -16.203125 C 2.96875 -17.203125 2.53125 -18.554688 2.53125 -20.265625 C 2.53125 -21.660156 2.894531 -22.929688 3.625 -24.078125 C 4.363281 -25.222656 5.492188 -26.132812 7.015625 -26.8125 C 8.546875 -27.5 10.441406 -27.84375 12.703125 -27.84375 C 14.273438 -27.84375 15.816406 -27.625 17.328125 -27.1875 C 18.835938 -26.757812 20.144531 -26.160156 21.25 -25.390625 L 20.265625 -23.078125 C 19.109375 -23.835938 17.875 -24.40625 16.5625 -24.78125 C 15.25 -25.164062 13.960938 -25.359375 12.703125 -25.359375 C 10.285156 -25.359375 8.460938 -24.890625 7.234375 -23.953125 C 6.015625 -23.023438 5.40625 -21.820312 5.40625 -20.34375 C 5.40625 -19.238281 5.738281 -18.351562 6.40625 -17.6875 C 7.082031 -17.019531 7.925781 -16.507812 8.9375 -16.15625 C 9.945312 -15.800781 11.304688 -15.410156 13.015625 -14.984375 C 15.035156 -14.484375 16.671875 -13.988281 17.921875 -13.5 C 19.171875 -13.019531 20.226562 -12.285156 21.09375 -11.296875 C 21.96875 -10.304688 22.40625 -8.972656 22.40625 -7.296875 C 22.40625 -5.898438 22.03125 -4.628906 21.28125 -3.484375 C 20.53125 -2.347656 19.378906 -1.441406 17.828125 -0.765625 C 16.273438 -0.0976562 14.367188 0.234375 12.109375 0.234375 Z M 12.109375 0.234375 "/></g></g></g><g fill="#ffffff" fill-opacity="1"><g transform="translate(355.427659, 107.485862)"><g><path d="M 27.5625 -27.609375 L 27.5625 0 L 24.6875 0 L 24.6875 -12.734375 L 7.421875 -12.734375 L 7.421875 0 L 4.5 0 L 4.5 -27.609375 L 7.421875 -27.609375 L 7.421875 -15.296875 L 24.6875 -15.296875 L 24.6875 -27.609375 Z M 27.5625 -27.609375 "/></g></g></g><g fill="#ffffff" fill-opacity="1"><g transform="translate(395.407019, 107.485862)"><g><path d="M 4.5 -27.609375 L 7.421875 -27.609375 L 7.421875 0 L 4.5 0 Z M 4.5 -27.609375 "/></g></g></g><g fill="#ffffff" fill-opacity="1"><g transform="translate(415.239639, 107.485862)"><g><path d="M 14.828125 -27.609375 C 18.347656 -27.609375 21.109375 -26.765625 23.109375 -25.078125 C 25.109375 -23.398438 26.109375 -21.085938 26.109375 -18.140625 C 26.109375 -15.191406 25.109375 -12.882812 23.109375 -11.21875 C 21.109375 -9.550781 18.347656 -8.71875 14.828125 -8.71875 L 7.421875 -8.71875 L 7.421875 0 L 4.5 0 L 4.5 -27.609375 Z M 14.75 -11.28125 C 17.476562 -11.28125 19.566406 -11.878906 21.015625 -13.078125 C 22.460938 -14.273438 23.1875 -15.960938 23.1875 -18.140625 C 23.1875 -20.378906 22.460938 -22.09375 21.015625 -23.28125 C 19.566406 -24.476562 17.476562 -25.078125 14.75 -25.078125 L 7.421875 -25.078125 L 7.421875 -11.28125 Z M 14.75 -11.28125 "/></g></g></g><g fill="#ffffff" fill-opacity="1"><g transform="translate(469.729104, 107.485862)"><g><path d="M 33.171875 -27.609375 L 33.171875 0 L 30.359375 0 L 30.359375 -22.078125 L 19.515625 -3.515625 L 18.140625 -3.515625 L 7.296875 -21.96875 L 7.296875 0 L 4.5 0 L 4.5 -27.609375 L 6.90625 -27.609375 L 18.890625 -7.140625 L 30.765625 -27.609375 Z M 33.171875 -27.609375 "/></g></g></g><g fill="#ffffff" fill-opacity="1"><g transform="translate(515.306998, 107.485862)"><g><path d="M 21.8125 -7.375 L 6.421875 -7.375 L 3.109375 0 L 0.078125 0 L 12.703125 -27.609375 L 15.578125 -27.609375 L 28.203125 0 L 25.125 0 Z M 20.75 -9.734375 L 14.125 -24.5625 L 7.5 -9.734375 Z M 20.75 -9.734375 "/></g></g></g><g fill="#ffffff" fill-opacity="1"><g transform="translate(551.501467, 107.485862)"><g><path d="M 12.109375 0.234375 C 10.054688 0.234375 8.085938 -0.09375 6.203125 -0.75 C 4.328125 -1.40625 2.878906 -2.273438 1.859375 -3.359375 L 3 -5.59375 C 4 -4.59375 5.328125 -3.785156 6.984375 -3.171875 C 8.640625 -2.554688 10.347656 -2.25 12.109375 -2.25 C 14.578125 -2.25 16.425781 -2.703125 17.65625 -3.609375 C 18.894531 -4.515625 19.515625 -5.691406 19.515625 -7.140625 C 19.515625 -8.242188 19.179688 -9.125 18.515625 -9.78125 C 17.847656 -10.4375 17.023438 -10.941406 16.046875 -11.296875 C 15.078125 -11.648438 13.722656 -12.039062 11.984375 -12.46875 C 9.910156 -12.988281 8.253906 -13.488281 7.015625 -13.96875 C 5.785156 -14.457031 4.726562 -15.203125 3.84375 -16.203125 C 2.96875 -17.203125 2.53125 -18.554688 2.53125 -20.265625 C 2.53125 -21.660156 2.894531 -22.929688 3.625 -24.078125 C 4.363281 -25.222656 5.492188 -26.132812 7.015625 -26.8125 C 8.546875 -27.5 10.441406 -27.84375 12.703125 -27.84375 C 14.273438 -27.84375 15.816406 -27.625 17.328125 -27.1875 C 18.835938 -26.757812 20.144531 -26.160156 21.25 -25.390625 L 20.265625 -23.078125 C 19.109375 -23.835938 17.875 -24.40625 16.5625 -24.78125 C 15.25 -25.164062 13.960938 -25.359375 12.703125 -25.359375 C 10.285156 -25.359375 8.460938 -24.890625 7.234375 -23.953125 C 6.015625 -23.023438 5.40625 -21.820312 5.40625 -20.34375 C 5.40625 -19.238281 5.738281 -18.351562 6.40625 -17.6875 C 7.082031 -17.019531 7.925781 -16.507812 8.9375 -16.15625 C 9.945312 -15.800781 11.304688 -15.410156 13.015625 -14.984375 C 15.035156 -14.484375 16.671875 -13.988281 17.921875 -13.5 C 19.171875 -13.019531 20.226562 -12.285156 21.09375 -11.296875 C 21.96875 -10.304688 22.40625 -8.972656 22.40625 -7.296875 C 22.40625 -5.898438 22.03125 -4.628906 21.28125 -3.484375 C 20.53125 -2.347656 19.378906 -1.441406 17.828125 -0.765625 C 16.273438 -0.0976562 14.367188 0.234375 12.109375 0.234375 Z M 12.109375 0.234375 "/></g></g></g><g fill="#ffffff" fill-opacity="1"><g transform="translate(583.674473, 107.485862)"><g><path d="M 9.859375 -25.078125 L 0.15625 -25.078125 L 0.15625 -27.609375 L 22.484375 -27.609375 L 22.484375 -25.078125 L 12.78125 -25.078125 L 12.78125 0 L 9.859375 0 Z M 9.859375 -25.078125 "/></g></g></g><g fill="#ffffff" fill-opacity="1"><g transform="translate(614.231014, 107.485862)"><g><path d="M 24.015625 -2.53125 L 24.015625 0 L 4.5 0 L 4.5 -27.609375 L 23.421875 -27.609375 L 23.421875 -25.078125 L 7.421875 -25.078125 L 7.421875 -15.265625 L 21.6875 -15.265625 L 21.6875 -12.78125 L 7.421875 -12.78125 L 7.421875 -2.53125 Z M 24.015625 -2.53125 "/></g></g></g><g fill="#ffffff" fill-opacity="1"><g transform="translate(648.533025, 107.485862)"><g><path d="M 23.34375 0 L 17.03125 -8.875 C 16.320312 -8.789062 15.585938 -8.75 14.828125 -8.75 L 7.421875 -8.75 L 7.421875 0 L 4.5 0 L 4.5 -27.609375 L 14.828125 -27.609375 C 18.347656 -27.609375 21.109375 -26.765625 23.109375 -25.078125 C 25.109375 -23.398438 26.109375 -21.085938 26.109375 -18.140625 C 26.109375 -15.984375 25.5625 -14.160156 24.46875 -12.671875 C 23.375 -11.191406 21.816406 -10.125 19.796875 -9.46875 L 26.546875 0 Z M 14.75 -11.234375 C 17.476562 -11.234375 19.566406 -11.835938 21.015625 -13.046875 C 22.460938 -14.265625 23.1875 -15.960938 23.1875 -18.140625 C 23.1875 -20.378906 22.460938 -22.09375 21.015625 -23.28125 C 19.566406 -24.476562 17.476562 -25.078125 14.75 -25.078125 L 7.421875 -25.078125 L 7.421875 -11.234375 Z M 14.75 -11.234375 "/></g></g></g><g fill="#ffffff" fill-opacity="1"><g transform="translate(684.964043, 107.485862)"><g><path d="M 13.953125 -9.546875 L 13.953125 0 L 11.078125 0 L 11.078125 -9.546875 L 0.046875 -27.609375 L 3.15625 -27.609375 L 12.625 -12.109375 L 22.078125 -27.609375 L 25 -27.609375 Z M 13.953125 -9.546875 "/></g></g></g></svg>