<svg width="99" height="37" viewBox="0 0 99 37" fill="none" xmlns="http://www.w3.org/2000/svg">
<path d="M18 7.06818C16.7625 7.06818 15.75 8.08068 15.75 9.31818V12.8844L18 15.1344L20.25 12.8844V9.31818C20.25 8.69943 20.0025 8.13693 19.5862 7.72068C19.1812 7.31568 18.6188 7.06818 18 7.06818Z" stroke="white" stroke-width="1.6875" stroke-miterlimit="10" stroke-linecap="round" stroke-linejoin="round"/>
<path d="M15.75 23.7519V27.3181C15.75 28.5556 16.7625 29.5681 18 29.5681C19.2375 29.5681 20.25 28.5556 20.25 27.3181V23.7519L18 21.5019L15.75 23.7519Z" stroke="white" stroke-width="1.6875" stroke-miterlimit="10" stroke-linecap="round" stroke-linejoin="round"/>
<path d="M12.5663 16.0682H9C7.7625 16.0682 6.75 17.0807 6.75 18.3182C6.75 19.5557 7.7625 20.5682 9 20.5682H12.5663L14.8163 18.3182L12.5663 16.0682Z" stroke="white" stroke-width="1.6875" stroke-miterlimit="10" stroke-linecap="round" stroke-linejoin="round"/>
<path d="M27.0001 16.0682H23.4338L21.1838 18.3182L23.4338 20.5682H27.0001C27.6188 20.5682 28.1813 20.3207 28.5863 19.9044C29.0026 19.4994 29.2501 18.9369 29.2501 18.3182C29.2501 17.0807 28.2376 16.0682 27.0001 16.0682Z" stroke="white" stroke-width="1.6875" stroke-miterlimit="10" stroke-linecap="round" stroke-linejoin="round"/>
<path d="M25.9537 23.0882L21.1837 18.3182L18 21.5019L22.77 26.2719C23.6475 27.1494 25.0762 27.1494 25.9537 26.2719C26.8312 25.3944 26.8312 23.9657 25.9537 23.0882Z" stroke="white" stroke-width="1.6875" stroke-miterlimit="10" stroke-linecap="round" stroke-linejoin="round"/>
<path d="M13.2301 10.3644C12.7913 9.92564 12.2176 9.70064 11.6326 9.70064C11.0588 9.70064 10.4851 9.92564 10.0463 10.3644C9.16881 11.2419 9.16881 12.6706 10.0463 13.5481L14.8163 18.3181L18.0001 15.1344L13.2301 10.3644Z" stroke="white" stroke-width="1.6875" stroke-miterlimit="10" stroke-linecap="round" stroke-linejoin="round"/>
<path d="M10.0463 26.2719C9.16881 25.3944 9.16881 23.9656 10.0463 23.0881L22.7701 10.3644C23.6476 9.4869 25.0763 9.4869 25.9538 10.3644C26.8313 11.2419 26.8313 12.6706 25.9538 13.5481L13.2301 26.2719C12.3526 27.1494 10.9238 27.1494 10.0463 26.2719Z" stroke="white" stroke-width="1.6875" stroke-miterlimit="10" stroke-linecap="round" stroke-linejoin="round"/>
<path d="M45.2693 15.3264C45.2117 14.7464 44.9648 14.2957 44.5286 13.9745C44.0923 13.6533 43.5003 13.4927 42.7524 13.4927C42.2442 13.4927 41.8152 13.5646 41.4652 13.7085C41.1152 13.8475 40.8468 14.0416 40.6598 14.2909C40.4776 14.5402 40.3865 14.8231 40.3865 15.1395C40.377 15.4031 40.4321 15.6333 40.5519 15.8298C40.6766 16.0264 40.8468 16.1966 41.0625 16.3404C41.2782 16.4794 41.5275 16.6017 41.8104 16.7071C42.0932 16.8078 42.3952 16.8941 42.7164 16.966L44.0396 17.2824C44.682 17.4262 45.2717 17.618 45.8086 17.8577C46.3455 18.0974 46.8105 18.3922 47.2037 18.7422C47.5968 19.0922 47.9012 19.5044 48.1169 19.979C48.3374 20.4537 48.4501 20.9978 48.4549 21.6114C48.4501 22.5127 48.22 23.2941 47.7646 23.9557C47.3139 24.6125 46.6619 25.123 45.8086 25.4874C44.96 25.8469 43.9365 26.0267 42.738 26.0267C41.5491 26.0267 40.5136 25.8445 39.6315 25.4802C38.7542 25.1159 38.0686 24.5765 37.5748 23.8622C37.0858 23.1431 36.8294 22.2538 36.8054 21.1943H39.8184C39.852 21.6881 39.9934 22.1004 40.2427 22.4312C40.4968 22.7572 40.8348 23.0041 41.2567 23.1719C41.6833 23.3349 42.1651 23.4164 42.7021 23.4164C43.2294 23.4164 43.6872 23.3397 44.0756 23.1863C44.4687 23.0328 44.7731 22.8195 44.9888 22.5463C45.2045 22.273 45.3124 21.959 45.3124 21.6042C45.3124 21.2734 45.2141 20.9954 45.0176 20.7701C44.8258 20.5447 44.543 20.353 44.169 20.1948C43.7999 20.0366 43.3469 19.8928 42.8099 19.7633L41.2063 19.3606C39.9647 19.0586 38.9843 18.5864 38.2652 17.944C37.5461 17.3016 37.1889 16.4363 37.1937 15.348C37.1889 14.4563 37.4262 13.6773 37.9056 13.0109C38.3898 12.3445 39.0538 11.8244 39.8975 11.4505C40.7413 11.0765 41.7001 10.8896 42.774 10.8896C43.867 10.8896 44.821 11.0765 45.636 11.4505C46.4558 11.8244 47.0934 12.3445 47.5488 13.0109C48.0043 13.6773 48.2392 14.4491 48.2536 15.3264H45.2693ZM52.6289 26.0267C51.9242 26.0267 51.2962 25.9045 50.7449 25.66C50.1936 25.4107 49.7573 25.0439 49.4361 24.5597C49.1197 24.0708 48.9615 23.4619 48.9615 22.7332C48.9615 22.1196 49.0742 21.6042 49.2995 21.1871C49.5248 20.7701 49.8316 20.4345 50.2199 20.1804C50.6083 19.9263 51.0493 19.7346 51.5431 19.6051C52.0417 19.4757 52.5642 19.3846 53.1107 19.3319C53.7531 19.2647 54.2709 19.2024 54.664 19.1449C55.0571 19.0826 55.3424 18.9915 55.5197 18.8716C55.6971 18.7518 55.7858 18.5744 55.7858 18.3395V18.2963C55.7858 17.8409 55.642 17.4885 55.3544 17.2393C55.0715 16.99 54.6688 16.8653 54.1463 16.8653C53.5949 16.8653 53.1563 16.9876 52.8303 17.2321C52.5043 17.4718 52.2886 17.7738 52.1831 18.1381L49.3498 17.908C49.4936 17.2369 49.7765 16.6568 50.1984 16.1678C50.6202 15.674 51.1644 15.2953 51.8307 15.0316C52.5019 14.7631 53.2785 14.6289 54.1606 14.6289C54.7743 14.6289 55.3615 14.7008 55.9224 14.8446C56.4881 14.9885 56.9891 15.2114 57.4254 15.5134C57.8664 15.8154 58.214 16.2037 58.4681 16.6784C58.7222 17.1482 58.8492 17.7115 58.8492 18.3683V25.8182H55.944V24.2865H55.8577C55.6803 24.6317 55.443 24.9361 55.1458 25.1998C54.8486 25.4586 54.4914 25.6624 54.0743 25.811C53.6573 25.9548 53.1755 26.0267 52.6289 26.0267ZM53.5063 23.9126C53.9569 23.9126 54.3548 23.8239 54.7 23.6465C55.0451 23.4643 55.316 23.2198 55.5126 22.913C55.7091 22.6062 55.8074 22.2586 55.8074 21.8703V20.6982C55.7115 20.7605 55.5797 20.818 55.4119 20.8707C55.2489 20.9187 55.0643 20.9642 54.8582 21.0074C54.652 21.0457 54.4459 21.0817 54.2397 21.1152C54.0336 21.144 53.8466 21.1704 53.6788 21.1943C53.3193 21.2471 53.0053 21.331 52.7368 21.446C52.4683 21.5611 52.2598 21.7169 52.1112 21.9134C51.9626 22.1052 51.8883 22.3449 51.8883 22.6325C51.8883 23.0496 52.0393 23.3684 52.3413 23.589C52.6481 23.8047 53.0364 23.9126 53.5063 23.9126ZM70.1154 14.7727L66.2538 25.8182H62.8021L58.9405 14.7727H62.1765L64.4705 22.6757H64.5855L66.8723 14.7727H70.1154ZM70.6706 25.8182V14.7727H73.734V25.8182H70.6706ZM72.2095 13.3489C71.754 13.3489 71.3633 13.1979 71.0373 12.8959C70.7161 12.589 70.5555 12.2223 70.5555 11.7956C70.5555 11.3738 70.7161 11.0118 71.0373 10.7098C71.3633 10.403 71.754 10.2496 72.2095 10.2496C72.6649 10.2496 73.0532 10.403 73.3744 10.7098C73.7004 11.0118 73.8634 11.3738 73.8634 11.7956C73.8634 12.2223 73.7004 12.589 73.3744 12.8959C73.0532 13.1979 72.6649 13.3489 72.2095 13.3489ZM80.166 26.0339C79.049 26.0339 78.083 25.7966 77.268 25.322C76.4578 24.8426 75.8322 24.1762 75.3911 23.3229C74.9501 22.4648 74.7296 21.47 74.7296 20.3386C74.7296 19.1976 74.9501 18.2005 75.3911 17.3471C75.8322 16.489 76.4578 15.8226 77.268 15.348C78.083 14.8686 79.049 14.6289 80.166 14.6289C81.283 14.6289 82.2466 14.8686 83.0568 15.348C83.8718 15.8226 84.4998 16.489 84.9409 17.3471C85.3819 18.2005 85.6024 19.1976 85.6024 20.3386C85.6024 21.47 85.3819 22.4648 84.9409 23.3229C84.4998 24.1762 83.8718 24.8426 83.0568 25.322C82.2466 25.7966 81.283 26.0339 80.166 26.0339ZM80.1804 23.6609C80.6885 23.6609 81.1128 23.517 81.4532 23.2294C81.7936 22.937 82.0501 22.5391 82.2226 22.0357C82.4 21.5323 82.4887 20.9594 82.4887 20.317C82.4887 19.6746 82.4 19.1017 82.2226 18.5984C82.0501 18.095 81.7936 17.6971 81.4532 17.4047C81.1128 17.1122 80.6885 16.966 80.1804 16.966C79.6674 16.966 79.236 17.1122 78.886 17.4047C78.5408 17.6971 78.2795 18.095 78.1022 18.5984C77.9296 19.1017 77.8433 19.6746 77.8433 20.317C77.8433 20.9594 77.9296 21.5323 78.1022 22.0357C78.2795 22.5391 78.5408 22.937 78.886 23.2294C79.236 23.517 79.6674 23.6609 80.1804 23.6609ZM92.4569 14.7727V17.0739H85.8052V14.7727H92.4569ZM87.3153 12.1264H90.3787V22.424C90.3787 22.7069 90.4219 22.9274 90.5082 23.0856C90.5945 23.239 90.7143 23.3469 90.8677 23.4092C91.0259 23.4715 91.2081 23.5027 91.4142 23.5027C91.5581 23.5027 91.7019 23.4907 91.8457 23.4667C91.9895 23.4379 92.0998 23.4164 92.1765 23.402L92.6583 25.6816C92.5049 25.7295 92.2892 25.7846 92.0111 25.8469C91.733 25.9141 91.3951 25.9548 90.9972 25.9692C90.2589 25.998 89.6117 25.8997 89.0556 25.6744C88.5043 25.449 88.0752 25.0991 87.7684 24.6245C87.4616 24.1499 87.3105 23.5506 87.3153 22.8267V12.1264Z" fill="white"/>
</svg>
