<svg width="1320" height="594" viewBox="0 0 1320 594" fill="none" xmlns="http://www.w3.org/2000/svg">
<g opacity="0.15">
<g clip-path="url(#clip0_8_414)">
<g clip-path="url(#clip1_8_414)">
<g clip-path="url(#clip2_8_414)">
<path d="M1364.48 612.537H1129.67L1072.1 573.805L1018.95 538.053L969.73 504.941L924.02 474.184L881.453 445.55L841.722 418.825L804.543 393.812L769.683 370.37L736.946 348.337M1364.5 612.537V-19.4272M-44.4108 507.207V85.8849M-44.4108 507.207V612.537H190.351L247.815 573.805L300.873 538.053L350.005 504.941L395.641 474.184L438.137 445.55L477.796 418.825L514.904 393.812L549.693 370.37L582.376 348.337H775.481L824.578 370.37M-44.4108 507.207L41.8298 481.374L121.452 457.521L195.186 435.434L263.657 414.936L327.419 395.846L386.935 378.024L442.615 361.343L494.816 345.714L543.859 331.032V244.416L494.816 222.418M-44.4108 -19.4451H1364.48M1129.68 612.555H190.405M41.8119 19.2687V573.823H1278.13L1198.42 538.071M1198.42 538.071H121.434V54.9676M1198.42 538.071V54.9676L1278.13 19.2509H41.8298L-44.4108 -19.4272V85.9029L41.8298 111.683L121.452 135.482L195.186 157.515L263.657 177.978L327.419 197.031L386.935 214.818L442.615 231.464L494.816 247.074L543.859 261.739M121.434 54.9676L41.8119 19.2509M121.434 54.9676H1018.93L1072.08 19.2509L1129.65 -19.4272M1124.62 504.959H195.168V88.0439M1056.08 474.202H263.64V118.747M1364.48 -19.4093L1278.15 19.2687V111.701L1198.44 135.5L1124.64 157.533L1056.09 177.996L992.26 197.049L932.673 214.836L876.922 231.482L824.649 247.092L775.552 261.757V331.05L824.649 345.732L876.922 361.361L932.673 378.042L992.26 395.864L1056.09 414.953L1124.64 435.452L1198.44 457.539L1278.15 481.392V573.823L1364.48 612.555M992.22 445.55H327.383V147.328M1198.42 54.9497L1124.62 88.0079M1124.62 88.0079V504.923L1198.42 538.035M1124.62 88.0079H195.168L121.434 54.9497M1364.48 85.8849L1278.15 111.665V481.374L1364.48 507.207M190.405 -19.4272L247.869 19.2509L300.926 54.9676L350.059 88.0259L395.694 118.73L438.19 147.328L477.849 174.017L514.957 198.994L549.746 222.401L582.43 244.398H736.91L769.647 222.401L804.507 198.994L841.687 174.017L881.417 147.328L923.985 118.73L969.69 88.0259L1018.91 54.9676H1198.41M1124.6 88.0259L1056.06 118.73V474.184L1124.6 504.941M195.132 88.0259L263.604 118.73H1056.04M894.816 612.537L866.003 573.805L839.403 538.053L814.766 504.941L791.894 474.184L770.593 445.55L750.701 418.825L732.093 393.812L714.645 370.37L698.25 348.337M425.167 612.537L453.872 573.805L480.383 538.053L504.931 504.941L527.731 474.184L548.961 445.55L568.782 418.825L587.318 393.812L604.695 370.37L621.019 348.337M386.899 174.017V418.825H932.602L876.85 393.812M876.85 393.812V198.994L824.578 222.401H494.709L442.508 198.994V393.812H876.85ZM543.823 313.691L494.78 321.041L442.579 328.873L386.899 337.222L327.383 346.143L263.622 355.705L195.15 365.964L121.416 377.025L41.7941 388.96L-44.4465 401.894M543.788 279.062L494.744 271.748L442.543 263.951L386.863 255.638L327.348 246.753L263.586 237.226L195.115 227.004L121.38 215.996L41.7584 204.114L-44.4822 191.233M1056 118.73L992.17 147.328V445.55L1056 474.184M263.568 118.73L327.33 147.328H992.19M659.982 612.537L659.929 573.805L659.875 538.053L659.839 504.941L659.804 474.184L659.768 445.55L659.732 418.825L659.697 393.812L659.661 370.37L659.625 348.337M543.77 296.368H494.726L442.525 296.403H386.845L327.33 296.439H263.568L195.097 296.474H121.362L41.7406 296.528L-44.5 296.564M992.15 147.328L932.566 174.017M932.566 174.017V418.825L992.15 445.55M932.566 174.017H386.81M386.81 174.017L327.294 147.328M386.81 174.017L442.49 198.994H876.832L932.584 174.017M494.78 370.37L543.823 348.337V331.014M824.685 222.418V370.388M824.685 370.388L876.957 393.83M824.685 370.388H494.816L442.615 393.83L386.935 418.843L327.419 445.568L263.657 474.202L195.186 504.959L121.452 538.071L41.8298 573.823L-44.4108 612.555M494.78 222.418V370.388M1364.46 401.894L1278.13 388.96L1198.42 377.025L1124.62 365.964L1056.08 355.705L992.24 346.143L932.655 337.222L876.904 328.873L824.631 321.041L775.535 313.691M1364.46 191.215L1278.13 204.097L1198.42 215.978L1124.62 226.986L1056.08 237.208L992.24 246.735L932.655 255.62L876.904 263.933L824.631 271.73L775.535 279.044M698.303 244.398L714.699 222.401L732.147 198.994L750.754 174.017L770.646 147.328L791.948 118.73L814.819 88.0259L839.457 54.9676L866.057 19.2509L894.869 -19.4272M621.09 244.398L604.766 222.401L587.39 198.994L568.853 174.017L549.033 147.328L527.803 118.73L505.003 88.0259L480.454 54.9676L453.943 19.2509L425.238 -19.4272M1364.5 296.564L1278.17 296.528H1198.46L1124.65 296.474H1056.11L992.28 296.439H932.691L876.939 296.403H824.667L775.57 296.368M659.715 244.398L659.75 222.401L659.786 198.994L659.822 174.017L659.857 147.328L659.893 118.73L659.929 88.0259L659.964 54.9676L660.018 19.2509L660.071 -19.4272M775.588 244.398V261.721M543.877 244.398H582.501M736.981 244.398H775.606L824.703 222.401M775.606 331.014V348.337M582.501 348.337H543.877" stroke="white" stroke-width="1.08501" stroke-linecap="round" stroke-linejoin="round"/>
</g>
</g>
</g>
<rect width="1320" height="177.92" fill="url(#paint0_linear_8_414)"/>
</g>
<defs>
<linearGradient id="paint0_linear_8_414" x1="660" y1="0" x2="660" y2="177.92" gradientUnits="userSpaceOnUse">
<stop stop-color="#0D051D"/>
<stop offset="1" stop-color="#0D051D" stop-opacity="0"/>
</linearGradient>
<clipPath id="clip0_8_414">
<rect width="1320" height="593.11" fill="white"/>
</clipPath>
<clipPath id="clip1_8_414">
<rect width="1320" height="593.11" fill="white"/>
</clipPath>
<clipPath id="clip2_8_414">
<rect width="1411" height="634" fill="white" transform="translate(-45.5 -20.4451)"/>
</clipPath>
</defs>
</svg>
