<svg xmlns="http://www.w3.org/2000/svg" width="19" height="19" viewBox="0 0 19 19" fill="none">
  <g opacity="0.8">
    <mask id="mask0_541_3875" style="mask-type:luminance" maskUnits="userSpaceOnUse" x="0" y="0" width="19" height="19">
      <path d="M0.5 0.727539H18.5V18.7275H0.5V0.727539Z" fill="white"/>
    </mask>
    <g mask="url(#mask0_541_3875)">
      <path d="M9.4991 0.936524C7.35623 0.935522 5.28332 1.69914 3.65319 3.09003C2.02306 4.48092 0.942697 6.40781 0.60641 8.52413C0.270123 10.6404 0.699981 12.8073 1.81867 14.635C2.93736 16.4627 4.67147 17.8312 6.7091 18.4945H6.9261C7.03231 18.5011 7.1387 18.485 7.23821 18.4474C7.33772 18.4097 7.42808 18.3513 7.50327 18.276C7.57846 18.2007 7.63678 18.1102 7.67433 18.0107C7.71189 17.9111 7.72784 17.8047 7.7211 17.6985V16.7235C7.70558 16.6247 7.65168 16.5359 7.5711 16.4765C7.52736 16.4416 7.47645 16.4168 7.42199 16.4038C7.36754 16.3908 7.31089 16.3901 7.2561 16.4015C5.2461 16.8365 4.8191 15.5765 4.7891 15.4945C4.53637 14.8283 4.08632 14.2551 3.4991 13.8515C3.46343 13.8212 3.42567 13.7935 3.3861 13.7685C3.47326 13.7216 3.573 13.7034 3.6711 13.7165C3.85978 13.7424 4.0385 13.8169 4.18977 13.9325C4.34105 14.0482 4.4597 14.2012 4.5341 14.3765C4.82424 14.8817 5.29902 15.2547 5.85854 15.4169C6.41806 15.5792 7.0187 15.5181 7.5341 15.2465C7.58908 15.2219 7.63743 15.1846 7.67516 15.1377C7.71289 15.0907 7.73892 15.0355 7.7511 14.9765C7.77971 14.6294 7.9282 14.3031 8.1711 14.0535C8.22484 14.0057 8.26366 13.9433 8.28295 13.874C8.30224 13.8047 8.30117 13.7313 8.27987 13.6625C8.25858 13.5938 8.21795 13.5326 8.16285 13.4864C8.10774 13.4401 8.04049 13.4106 7.9691 13.4015C6.1911 13.1995 4.3761 12.5765 4.3761 9.50852C4.36126 8.73812 4.64342 7.99153 5.1641 7.42352C5.21133 7.37027 5.24266 7.30482 5.2545 7.23463C5.26635 7.16444 5.25824 7.09233 5.2311 7.02652C5.02283 6.44411 5.02566 5.80706 5.2391 5.22652C5.9321 5.34952 6.5821 5.64652 7.1291 6.08852C7.17432 6.12033 7.22608 6.1416 7.28059 6.15077C7.3351 6.15994 7.39097 6.15678 7.4441 6.14152C8.11414 5.96009 8.80494 5.86664 9.4991 5.86352C10.1961 5.86452 10.8891 5.95752 11.5611 6.14152C11.6132 6.1557 11.6678 6.1583 11.721 6.14914C11.7742 6.13998 11.8247 6.1193 11.8691 6.08852C12.417 5.64747 13.0669 5.35107 13.7591 5.22652C13.9631 5.80404 13.9631 6.434 13.7591 7.01152C13.7308 7.0771 13.722 7.14949 13.7339 7.21993C13.7458 7.29038 13.7778 7.35588 13.8261 7.40852C14.3415 7.97098 14.6233 8.70868 14.6141 9.47153C14.6141 12.5395 12.7911 13.1545 11.0061 13.3565C10.9327 13.3638 10.863 13.3926 10.806 13.4394C10.7489 13.4861 10.7069 13.5487 10.6853 13.6193C10.6637 13.6898 10.6635 13.7652 10.6846 13.8359C10.7057 13.9066 10.7473 13.9694 10.8041 14.0165C10.9701 14.188 11.097 14.3935 11.1759 14.6188C11.2548 14.8441 11.2839 15.0839 11.2611 15.3215V17.7065C11.2577 17.8238 11.2801 17.9404 11.3267 18.0481C11.3734 18.1558 11.4432 18.2518 11.5311 18.3295C11.6434 18.4135 11.7738 18.47 11.9118 18.4947C12.0498 18.5194 12.1917 18.5114 12.3261 18.4715C14.3496 17.7946 16.0667 16.4208 17.1712 14.5952C18.2757 12.7696 18.6956 10.611 18.3561 8.50448C18.0166 6.39798 16.9398 4.4806 15.3177 3.09443C13.6956 1.70826 11.6338 0.94348 9.5001 0.936524" fill="url(#paint0_linear_541_3875)"/>
    </g>
  </g>
  <defs>
    <linearGradient id="paint0_linear_541_3875" x1="9.4841" y1="0.936524" x2="9.4841" y2="18.5085" gradientUnits="userSpaceOnUse">
      <stop stop-color="#C9CBCF"/>
      <stop offset="1" stop-color="#C9CBCF" stop-opacity="0.8"/>
    </linearGradient>
  </defs>
</svg>