<svg xmlns="http://www.w3.org/2000/svg" width="19" height="19" viewBox="0 0 19 19" fill="none">
  <g opacity="0.8">
    <mask id="mask0_541_3869" style="mask-type:luminance" maskUnits="userSpaceOnUse" x="0" y="0" width="19" height="19">
      <path d="M0.5 0.727539H18.5V18.7275H0.5V0.727539Z" fill="white"/>
    </mask>
    <g mask="url(#mask0_541_3869)">
      <path d="M16.9249 1.62793H2.0749C1.6699 1.62793 1.3999 1.89793 1.3999 2.30293V17.1529C1.3999 17.5579 1.6699 17.8279 2.0749 17.8279H16.9249C17.3299 17.8279 17.5999 17.5579 17.5999 17.1529V2.30293C17.5999 1.89793 17.3299 1.62793 16.9249 1.62793ZM6.1929 15.4649H3.8299V7.70293H6.2599V15.4649H6.1929ZM4.9779 6.62293C4.60247 6.62083 4.24302 6.47076 3.97755 6.20529C3.71207 5.93981 3.562 5.58036 3.5599 5.20493C3.5599 4.46293 4.1679 3.78793 4.9779 3.78793C5.7199 3.78793 6.3949 4.39493 6.3949 5.20493C6.3949 6.01493 5.7879 6.62293 4.9779 6.62293ZM15.2379 15.4649H12.8079V11.6849C12.8079 10.8079 12.8079 9.65993 11.5929 9.65993C10.3099 9.65993 10.1749 10.6049 10.1749 11.6179V15.4649H7.7449V7.70293H10.0399V8.78293C10.3779 8.17493 11.1199 7.56793 12.3349 7.56793C14.7649 7.56793 15.2379 9.18793 15.2379 11.2799V15.4649Z" fill="url(#paint0_linear_541_3869)"/>
    </g>
  </g>
  <defs>
    <linearGradient id="paint0_linear_541_3869" x1="9.4999" y1="1.62793" x2="9.4999" y2="17.8279" gradientUnits="userSpaceOnUse">
      <stop stop-color="#C9CBCF"/>
      <stop offset="1" stop-color="#C9CBCF" stop-opacity="0.8"/>
    </linearGradient>
  </defs>
</svg>