<svg xmlns="http://www.w3.org/2000/svg" width="19" height="19" viewBox="0 0 19 19" fill="none">
  <g opacity="0.8">
    <mask id="mask0_541_3883" style="mask-type:luminance" maskUnits="userSpaceOnUse" x="0" y="0" width="19" height="19">
      <path d="M0.5 0.727539H18.5V18.7275H0.5V0.727539Z" fill="white"/>
    </mask>
    <g mask="url(#mask0_541_3883)">
      <path fill-rule="evenodd" clip-rule="evenodd" d="M6.19788 2.10195C6.42438 1.87526 6.71304 1.72083 7.02732 1.65821C7.3416 1.59559 7.6674 1.62759 7.9635 1.75016C8.25959 1.87273 8.51268 2.08036 8.69075 2.3468C8.86882 2.61323 8.96387 2.92649 8.96388 3.24695V4.86695H7.34388C7.02354 4.86695 6.71039 4.77197 6.44402 4.59402C6.17764 4.41608 5.97001 4.16315 5.84735 3.86722C5.7247 3.57129 5.69254 3.24564 5.75493 2.93143C5.81732 2.61723 5.97146 2.32857 6.19788 2.10195ZM3.02088 5.94795H7.34088C7.77053 5.94795 8.18258 6.11863 8.48639 6.42244C8.7902 6.72625 8.96088 7.1383 8.96088 7.56795C8.96088 7.9976 8.7902 8.40966 8.48639 8.71347C8.18258 9.01727 7.77053 9.18795 7.34088 9.18795H3.02088C2.59123 9.18795 2.17917 9.01727 1.87537 8.71347C1.57156 8.40966 1.40088 7.9976 1.40088 7.56795C1.40088 7.1383 1.57156 6.72625 1.87537 6.42244C2.17917 6.11863 2.59123 5.94795 3.02088 5.94795ZM17.6009 7.56795C17.6009 7.1383 17.4302 6.72625 17.1264 6.42244C16.8226 6.11863 16.4105 5.94795 15.9809 5.94795C15.5512 5.94795 15.1392 6.11863 14.8354 6.42244C14.5316 6.72625 14.3609 7.1383 14.3609 7.56795V9.18795H15.9809C16.4105 9.18795 16.8226 9.01727 17.1264 8.71347C17.4302 8.40966 17.6009 7.9976 17.6009 7.56795ZM13.2819 3.24795V7.56795C13.2816 7.99743 13.1108 8.40923 12.807 8.71282C12.5033 9.01641 12.0914 9.18695 11.6619 9.18695C11.2322 9.18695 10.8202 9.01627 10.5164 8.71247C10.2126 8.40866 10.0419 7.9966 10.0419 7.56695V3.24695C10.0419 2.8173 10.2126 2.40525 10.5164 2.10144C10.8202 1.79763 11.2322 1.62695 11.6619 1.62695C12.0915 1.62695 12.5036 1.79763 12.8074 2.10144C13.1112 2.40525 13.2819 2.8183 13.2819 3.24795ZM11.6619 17.827C12.0915 17.827 12.5036 17.6563 12.8074 17.3525C13.1112 17.0487 13.2819 16.6366 13.2819 16.207C13.2819 15.7773 13.1112 15.3652 12.8074 15.0614C12.5036 14.7576 12.0915 14.587 11.6619 14.587H10.0419V16.207C10.0419 16.6366 10.2126 17.0487 10.5164 17.3525C10.8202 17.6563 11.2322 17.827 11.6619 17.827ZM15.9819 13.505H11.6619C11.2322 13.505 10.8202 13.3343 10.5164 13.0305C10.2126 12.7267 10.0419 12.3146 10.0419 11.885C10.0419 11.4553 10.2126 11.0432 10.5164 10.7394C10.8202 10.4356 11.2322 10.265 11.6619 10.265H15.9819C16.4115 10.265 16.8236 10.4356 17.1274 10.7394C17.4312 11.0432 17.6019 11.4553 17.6019 11.885C17.6019 12.3146 17.4312 12.7267 17.1274 13.0305C16.8236 13.3343 16.4115 13.505 15.9819 13.505ZM1.40188 11.885C1.40188 12.3146 1.57256 12.7267 1.87637 13.0305C2.18017 13.3343 2.59223 13.505 3.02188 13.505C3.45153 13.505 3.86358 13.3343 4.16739 13.0305C4.4712 12.7267 4.64188 12.3146 4.64188 11.885V10.265H3.02188C2.80914 10.265 2.59848 10.3069 2.40193 10.3883C2.20538 10.4697 2.0268 10.589 1.87637 10.7394C1.72593 10.8899 1.60661 11.0685 1.52519 11.265C1.44378 11.4616 1.40188 11.6722 1.40188 11.885ZM5.72388 16.205V11.885C5.72388 11.4553 5.89456 11.0432 6.19837 10.7394C6.50217 10.4356 6.91423 10.265 7.34388 10.265C7.77353 10.265 8.18558 10.4356 8.48939 10.7394C8.7932 11.0432 8.96388 11.4553 8.96388 11.885V16.205C8.96388 16.6346 8.7932 17.0467 8.48939 17.3505C8.18558 17.6543 7.77353 17.825 7.34388 17.825C6.91423 17.825 6.50217 17.6543 6.19837 17.3505C5.89456 17.0467 5.72388 16.6346 5.72388 16.205Z" fill="url(#paint0_linear_541_3883)"/>
    </g>
  </g>
  <defs>
    <linearGradient id="paint0_linear_541_3883" x1="9.50188" y1="1.62695" x2="9.50188" y2="17.829" gradientUnits="userSpaceOnUse">
      <stop stop-color="#C9CBCF"/>
      <stop offset="1" stop-color="#C9CBCF" stop-opacity="0.8"/>
    </linearGradient>
  </defs>
</svg>