<svg xmlns="http://www.w3.org/2000/svg" width="19" height="19" viewBox="0 0 19 19" fill="none">
  <g opacity="0.8">
    <path d="M18.275 6.12754C18.05 4.66454 17.375 3.65254 15.8 3.42754C13.325 2.97754 9.5 2.97754 9.5 2.97754C9.5 2.97754 5.675 2.97754 3.2 3.42754C1.625 3.65254 0.837 4.66454 0.725 6.12754C0.5 7.58954 0.5 9.72754 0.5 9.72754C0.5 9.72754 0.5 11.8645 0.725 13.3275C0.95 14.7905 1.625 15.8025 3.2 16.0275C5.675 16.4775 9.5 16.4775 9.5 16.4775C9.5 16.4775 13.325 16.4775 15.8 16.0275C17.375 15.6895 18.05 14.7895 18.275 13.3275C18.5 11.8655 18.5 9.72754 18.5 9.72754C18.5 9.72754 18.5 7.59054 18.275 6.12754ZM7.25 13.1025V6.35254L12.875 9.72754L7.25 13.1025Z" fill="url(#paint0_linear_541_3881)"/>
  </g>
  <defs>
    <linearGradient id="paint0_linear_541_3881" x1="9.5" y1="2.97754" x2="9.5" y2="16.4775" gradientUnits="userSpaceOnUse">
      <stop stop-color="#C9CBCF"/>
      <stop offset="1" stop-color="#C9CBCF" stop-opacity="0.8"/>
    </linearGradient>
  </defs>
</svg>