<svg width="718" height="342" viewBox="0 0 718 342" fill="none" xmlns="http://www.w3.org/2000/svg">
<mask id="mask0_541_502" style="mask-type:luminance" maskUnits="userSpaceOnUse" x="0" y="0" width="718" height="342">
<path d="M0.5 0.833618H717.5V341.636H0.5V0.833618Z" fill="white"/>
</mask>
<g mask="url(#mask0_541_502)">
<path d="M20.9561 340.821C21.0215 296.677 29.7463 252.975 46.6361 212.189C63.5888 171.251 88.4383 134.052 119.766 102.716C151.091 71.3833 188.281 46.5275 229.213 29.5684C270.142 12.6107 314.012 3.88257 358.315 3.88257C402.618 3.88257 446.488 12.6107 487.417 29.5684C528.349 46.5276 565.539 71.3834 596.864 102.716C628.192 134.052 653.041 171.251 669.994 212.189C686.884 252.975 695.608 296.677 695.674 340.821H649.373C649.241 263.787 618.588 189.944 564.125 135.463C537.099 108.431 505.012 86.986 469.698 72.3544C416.514 50.3189 357.989 44.5533 301.527 55.7869C245.066 67.0206 193.204 94.7488 152.505 135.463C125.477 162.498 104.037 194.592 89.4111 229.911C74.8482 265.078 67.3213 302.759 67.2561 340.821H20.9561Z" fill="#05043A" stroke="url(#paint0_linear_541_502)"/>
<path d="M103.453 341.136C103.518 307.789 110.108 274.777 122.853 243.96C135.656 213.001 154.429 184.864 178.1 161.155C201.759 137.46 229.856 118.659 260.784 105.827C291.701 93.0013 324.844 86.399 358.315 86.3984C391.784 86.3984 424.925 93.0004 455.846 105.828C486.775 118.659 514.871 137.46 538.53 161.155C562.202 184.864 580.974 213.001 593.777 243.961C606.522 274.777 613.113 307.789 613.177 341.136H578.426C578.362 312.359 572.67 283.873 561.672 257.28C550.615 230.542 534.402 206.242 513.958 185.766C493.526 165.301 469.26 149.063 442.548 137.981C415.847 126.905 387.223 121.203 358.315 121.203C329.407 121.203 300.783 126.905 274.082 137.981C247.371 149.064 223.105 165.301 202.672 185.766C182.229 206.242 166.016 230.542 154.958 257.28C143.96 283.873 138.269 312.359 138.204 341.136H103.453Z" fill="#05043A" stroke="url(#paint1_linear_541_502)"/>
<path d="M172.095 341.136C172.16 316.805 176.975 292.721 186.27 270.235C195.624 247.605 209.341 227.037 226.638 209.704C243.923 192.384 264.452 178.641 287.052 169.259C309.641 159.884 333.858 155.058 358.315 155.057C382.769 155.057 406.985 159.883 429.578 169.259C452.178 178.641 472.707 192.384 489.992 209.704C507.289 227.037 521.005 247.605 530.359 270.235C539.654 292.721 544.469 316.805 544.534 341.136H519.393C519.329 320.113 515.164 299.305 507.133 279.876C499.042 260.302 487.177 242.511 472.215 227.518C457.264 212.536 439.506 200.648 419.957 192.533C400.418 184.424 379.47 180.249 358.314 180.249C337.159 180.249 316.211 184.424 296.672 192.533C277.123 200.648 259.365 212.536 244.414 227.518C229.452 242.511 217.588 260.302 209.497 279.876C201.465 299.305 197.301 320.113 197.236 341.136H172.095Z" fill="#05043A" stroke="url(#paint2_linear_541_502)"/>
<path d="M233.181 341.136C233.246 324.827 236.481 308.686 242.706 293.617C248.99 278.4 258.207 264.567 269.832 252.908C281.445 241.261 295.24 232.019 310.428 225.708C325.606 219.404 341.879 216.158 358.314 216.158C374.75 216.158 391.023 219.404 406.201 225.708C421.39 232.019 435.185 241.261 446.798 252.908C458.422 264.568 467.639 278.4 473.924 293.617C480.149 308.69 483.384 324.829 483.448 341.136H466.859C466.795 327.014 463.989 313.038 458.598 299.984C453.147 286.785 445.152 274.787 435.069 264.673C424.995 254.571 413.029 246.553 399.854 241.079C386.688 235.611 372.572 232.796 358.315 232.796C344.058 232.796 329.942 235.611 316.776 241.079C303.601 246.553 291.634 254.57 281.561 264.673C271.478 274.787 263.482 286.785 258.031 299.984C252.64 313.038 249.834 327.014 249.77 341.136H233.181Z" fill="#05043A" stroke="url(#paint3_linear_541_502)"/>
<path d="M278.524 341.136C278.588 330.785 280.649 320.543 284.596 310.972C288.602 301.257 294.479 292.425 301.893 284.977C309.296 277.542 318.093 271.64 327.78 267.608C337.457 263.583 347.834 261.51 358.315 261.509C368.795 261.51 379.172 263.583 388.849 267.608C398.536 271.64 407.333 277.542 414.736 284.977C422.15 292.425 428.027 301.257 432.033 310.972C435.98 320.542 438.042 330.785 438.106 341.136H427.865C427.801 332.136 426.004 323.231 422.572 314.91C419.08 306.443 413.958 298.744 407.496 292.253C401.043 285.772 393.376 280.627 384.932 277.113C376.497 273.605 367.451 271.798 358.315 271.797C349.179 271.798 340.133 273.605 331.698 277.113C323.254 280.627 315.586 285.772 309.133 292.253C302.671 298.744 297.548 306.443 294.057 314.91C290.625 323.231 288.828 332.136 288.765 341.136H278.524Z" fill="#05043A" stroke="url(#paint4_linear_541_502)"/>
<path fill-rule="evenodd" clip-rule="evenodd" d="M46.7551 212.238C29.8885 252.968 21.1675 296.608 21.0851 340.691H67.1271C67.2093 302.656 74.7393 265.004 89.2921 229.862C103.925 194.527 125.373 162.419 152.413 135.371C179.451 108.326 211.552 86.8725 246.882 72.2344C282.21 57.5974 320.075 50.0637 358.315 50.0637C396.555 50.0637 434.42 57.5974 469.748 72.2344C505.078 86.8722 537.178 108.326 564.216 135.371C618.672 189.844 649.337 263.667 649.503 340.691H695.544C695.462 296.608 686.741 252.968 669.874 212.238C652.928 171.316 628.088 134.132 596.772 102.808C565.459 71.487 528.283 46.6407 487.367 29.6884C446.453 12.7372 402.601 4.0124 358.315 4.0124C314.029 4.0124 270.177 12.7372 229.263 29.6884C188.347 46.6406 151.171 71.4869 119.858 102.808C88.542 134.132 63.7017 171.316 46.7551 212.238ZM696.174 340.691C696.091 296.525 687.354 252.803 670.456 211.997C653.478 170.998 628.592 133.745 597.218 102.362C565.846 70.9831 528.601 46.0906 487.608 29.1064C446.618 12.1238 402.684 3.38281 358.315 3.38281C313.946 3.38281 270.012 12.1238 229.022 29.1064C188.029 46.0904 150.784 70.9829 119.412 102.362C88.0382 133.745 63.152 170.998 46.1741 211.997C29.1949 252.999 20.4559 296.943 20.4561 341.321H67.7561C67.7561 303.155 75.2711 265.363 89.8731 230.103C104.474 194.844 125.877 162.805 152.86 135.816C179.84 108.83 211.871 87.4227 247.124 72.8164C282.375 58.2112 320.159 50.6938 358.316 50.6938C396.473 50.6938 434.257 58.2112 469.508 72.8164C504.762 87.4227 536.792 108.83 563.772 135.816C618.263 190.326 648.874 264.246 648.875 341.321H696.175L696.174 340.691Z" fill="#05043A"/>
<mask id="mask1_541_502" style="mask-type:luminance" maskUnits="userSpaceOnUse" x="20" y="3" width="677" height="339">
<path fill-rule="evenodd" clip-rule="evenodd" d="M46.7551 212.238C29.8885 252.968 21.1675 296.608 21.0851 340.691H67.1271C67.2093 302.656 74.7393 265.004 89.2921 229.862C103.925 194.527 125.373 162.419 152.413 135.371C179.451 108.326 211.552 86.8725 246.882 72.2344C282.21 57.5974 320.075 50.0637 358.315 50.0637C396.555 50.0637 434.42 57.5974 469.748 72.2344C505.078 86.8722 537.178 108.326 564.216 135.371C618.672 189.844 649.337 263.667 649.503 340.691H695.544C695.462 296.608 686.741 252.968 669.874 212.238C652.928 171.316 628.088 134.132 596.772 102.808C565.459 71.487 528.283 46.6407 487.367 29.6884C446.453 12.7372 402.601 4.0124 358.315 4.0124C314.029 4.0124 270.177 12.7372 229.263 29.6884C188.347 46.6406 151.171 71.4869 119.858 102.808C88.542 134.132 63.7017 171.316 46.7551 212.238ZM696.174 340.691C696.091 296.525 687.354 252.803 670.456 211.997C653.478 170.998 628.592 133.745 597.218 102.362C565.846 70.9831 528.601 46.0906 487.608 29.1064C446.618 12.1238 402.684 3.38281 358.315 3.38281C313.946 3.38281 270.012 12.1238 229.022 29.1064C188.029 46.0904 150.784 70.9829 119.412 102.362C88.0382 133.745 63.152 170.998 46.1741 211.997C29.1949 252.999 20.4559 296.943 20.4561 341.321H67.7561C67.7561 303.155 75.2711 265.363 89.8731 230.103C104.474 194.844 125.877 162.805 152.86 135.816C179.84 108.83 211.871 87.4227 247.124 72.8164C282.375 58.2112 320.159 50.6938 358.316 50.6938C396.473 50.6938 434.257 58.2112 469.508 72.8164C504.762 87.4227 536.792 108.83 563.772 135.816C618.263 190.326 648.874 264.246 648.875 341.321H696.175L696.174 340.691Z" fill="white"/>
</mask>
<g mask="url(#mask1_541_502)">
<path d="M21.0861 340.691L20.0861 340.689L20.0841 341.691H21.0861V340.691ZM67.1261 340.691V341.691H68.1251L68.1271 340.693L67.1261 340.691ZM649.503 340.691L648.503 340.693L648.505 341.691H649.503V340.691ZM695.544 340.691V341.691H696.546L696.544 340.689L695.544 340.691ZM20.4561 341.321H19.4561V342.321H20.4561V341.321ZM67.7561 341.321V342.321H68.7561V341.321H67.7561ZM648.874 341.321H647.874V342.321H648.874V341.321ZM696.174 341.321V342.321H697.174V341.321H696.174ZM22.0861 340.693C22.1679 296.741 30.8628 253.23 47.6791 212.621L45.8311 211.856C28.9148 252.706 20.1683 296.475 20.0861 340.689L22.0861 340.693ZM67.1261 339.691H21.0861V341.691H67.1261V339.691ZM88.368 229.479C73.7654 264.742 66.2096 302.523 66.1271 340.689L68.1271 340.693C68.209 302.788 75.7132 265.266 90.2161 230.244L88.368 229.479ZM151.706 134.664C124.573 161.804 103.051 194.022 88.368 229.479L90.2161 230.244C104.799 195.03 126.174 163.033 153.121 136.078L151.706 134.664ZM246.499 71.3103C211.048 85.9986 178.837 107.526 151.706 134.664L153.121 136.078C180.066 109.126 212.056 87.7457 247.265 73.1583L246.499 71.3103ZM358.315 49.0643C319.944 49.0642 281.948 56.6234 246.499 71.3103L247.265 73.1583C282.471 58.5718 320.207 51.0642 358.315 51.0643V49.0643ZM470.131 71.3103C434.682 56.6234 396.686 49.0642 358.315 49.0643V51.0643C396.423 51.0643 434.158 58.5713 469.365 73.1583L470.131 71.3103ZM564.924 134.664C537.793 107.527 505.582 85.9989 470.131 71.3103L469.365 73.1583C504.574 87.7457 536.564 109.126 563.509 136.078L564.924 134.664ZM628.262 229.479C613.579 194.023 592.057 161.804 564.924 134.664L563.509 136.078C590.457 163.032 611.832 195.03 626.414 230.244L628.262 229.479ZM650.503 340.689C650.42 302.523 642.864 264.742 628.262 229.479L626.414 230.244C640.917 265.266 648.421 302.788 648.503 340.693L650.503 340.689ZM695.544 339.691H649.503V341.691H695.544V339.691ZM668.951 212.621C685.767 253.23 694.462 296.741 694.544 340.693L696.544 340.689C696.461 296.475 687.714 252.706 670.798 211.856L668.951 212.621ZM596.065 103.514C627.288 134.745 652.055 171.82 668.951 212.621L670.798 211.856C653.802 170.812 628.888 133.517 597.479 102.101L596.065 103.514ZM486.984 30.6133C527.779 47.5154 564.845 72.288 596.065 103.516L597.479 102.101C566.073 70.6875 528.787 45.7677 487.75 28.7653L486.984 30.6133ZM358.315 5.01232C402.47 5.01249 446.192 13.7124 486.984 30.6133L487.75 28.7653C446.715 11.7639 402.733 3.01332 358.315 3.01332V5.01232ZM229.646 30.6123C270.438 13.7114 314.16 5.01249 358.315 5.01232V3.01332C313.898 3.01332 269.916 11.7633 228.88 28.7653L229.646 30.6123ZM120.565 103.514C151.785 72.286 188.851 47.5144 229.646 30.6123L228.88 28.7643C187.843 45.767 150.556 70.6867 119.15 102.1L120.565 103.514ZM47.6791 212.62C64.5752 171.819 89.3419 134.745 120.565 103.514L119.15 102.099C87.7413 133.516 62.8276 170.812 45.8311 211.856L47.6791 212.621V212.62ZM669.532 212.379C686.38 253.064 695.092 296.657 695.174 340.692L697.174 340.688C697.091 296.392 688.328 252.541 671.38 211.614L669.532 212.379ZM596.51 103.07C627.792 134.359 652.605 171.503 669.532 212.38L671.38 211.615C654.352 170.495 629.392 133.13 597.925 101.655L596.51 103.07ZM487.225 30.0303C528.096 46.9642 565.232 71.7833 596.51 103.07L597.925 101.655C566.461 70.183 529.105 45.2168 487.991 28.1823L487.225 30.0303ZM358.315 4.38232C402.552 4.38232 446.356 13.0973 487.225 30.0303L487.991 28.1823C446.88 11.1492 402.815 2.3823 358.315 2.38232V4.38232ZM229.405 30.0303C270.274 13.0977 314.078 4.38238 358.315 4.38232V2.38232C313.815 2.38232 269.751 11.1493 228.639 28.1823L229.405 30.0303ZM120.119 103.069C151.398 71.7825 188.534 46.9644 229.405 30.0303L228.639 28.1823C187.525 45.2171 150.169 70.1837 118.705 101.656L120.119 103.069ZM47.0971 212.38C64.0251 171.503 88.8379 134.358 120.119 103.069L118.705 101.655C87.2381 133.13 62.2781 170.495 45.2501 211.615L47.0971 212.38ZM21.4571 340.693C21.5386 296.658 30.2494 253.065 47.0971 212.38L45.2501 211.615C28.3018 252.542 19.5386 296.393 19.4561 340.689L21.4561 340.693H21.4571ZM21.4561 341.321V340.693L19.4561 340.689V341.321H21.4561ZM88.9491 229.72C74.297 265.103 66.7558 303.025 66.7561 341.321H68.7561C68.7561 303.286 76.2461 265.624 90.7971 230.485L88.9491 229.72ZM152.151 135.11C125.077 162.192 103.601 194.34 88.9491 229.72L90.7971 230.485C105.348 195.347 126.677 163.419 153.566 136.523L152.151 135.11ZM246.74 71.8913C211.365 86.5478 179.224 108.029 152.151 135.108L153.566 136.522C180.453 109.629 212.374 88.2959 247.506 73.7403L246.74 71.8913ZM358.315 49.6933C320.026 49.6935 282.113 57.2358 246.74 71.8913L247.506 73.7403C282.636 59.1855 320.289 51.6942 358.315 51.6943V49.6943V49.6933ZM469.89 71.8923C434.517 57.2371 396.604 49.6942 358.315 49.6943V51.6943C396.34 51.6943 433.993 59.1843 469.124 73.7403L469.89 71.8923ZM564.478 135.109C537.406 108.03 505.265 86.5488 469.89 71.8923L469.124 73.7403C504.256 88.2962 536.177 109.63 563.064 136.523L564.478 135.109ZM627.68 229.72C613.029 194.34 591.553 162.19 564.478 135.109L563.064 136.523C589.953 163.419 611.282 195.347 625.833 230.485L627.68 229.72ZM649.874 341.321C649.874 303.024 642.333 265.102 627.68 229.72L625.833 230.485C640.384 265.626 647.874 303.287 647.874 341.321H649.874ZM695.174 340.693V341.321H697.174V340.689L695.174 340.693ZM67.7561 340.321H20.4561V342.321H67.7561V340.321ZM696.174 340.321H648.874V342.321H696.174V340.321Z" fill="url(#paint5_linear_541_502)"/>
</g>
<mask id="mask2_541_502" style="mask-type:luminance" maskUnits="userSpaceOnUse" x="102" y="85" width="512" height="257">
<path fill-rule="evenodd" clip-rule="evenodd" d="M122.831 243.952C110.082 274.778 103.491 307.801 103.429 341.159H138.228C138.29 312.377 143.981 283.885 154.981 257.288C166.037 230.553 182.249 206.256 202.69 185.782C223.12 165.32 247.383 149.083 274.091 138.002C300.79 126.927 329.41 121.226 358.315 121.225C387.217 121.225 415.837 126.926 442.539 138.003C469.248 149.084 493.511 165.32 513.941 185.782C534.382 206.256 550.593 230.553 561.65 257.288C572.649 283.886 578.34 312.378 578.402 341.159H613.201C613.14 307.801 606.548 274.778 593.799 243.952C580.995 212.99 562.221 184.85 538.547 161.139C514.886 137.442 486.787 118.639 455.856 105.806C424.936 92.9795 391.79 86.3768 358.315 86.3764C324.84 86.3769 291.694 92.9795 260.774 105.806C229.843 118.639 201.744 137.442 178.083 161.139C154.41 184.85 135.635 212.99 122.831 243.952ZM613.677 341.159C613.616 307.739 607.012 274.653 594.239 243.769C581.411 212.749 562.601 184.558 538.884 160.802C515.179 137.06 487.027 118.222 456.038 105.365C425.061 92.5145 391.853 85.8997 358.315 85.8994C324.778 85.8996 291.57 92.5145 260.592 105.365C229.603 118.222 201.452 137.06 177.747 160.802C154.029 184.557 135.22 212.749 122.391 243.769C109.618 274.653 103.015 307.739 102.953 341.159V341.636H138.703C138.703 312.754 144.384 284.154 155.42 257.471C166.453 230.794 182.629 206.549 203.026 186.119C223.412 165.701 247.623 149.5 274.273 138.443C300.914 127.392 329.473 121.703 358.315 121.702C387.155 121.702 415.712 127.39 442.357 138.443C469.008 149.5 493.218 165.701 513.604 186.119C534.001 206.549 550.178 230.794 561.21 257.471C572.247 284.159 577.927 312.757 577.927 341.636H613.677V341.159Z" fill="white"/>
</mask>
<g mask="url(#mask2_541_502)">
<path d="M103.429 341.159L102.429 341.157L102.427 342.159H103.429V341.159ZM138.228 341.159V342.159H139.226L139.228 341.161L138.228 341.159ZM578.402 341.159L577.402 341.161L577.404 342.159H578.402V341.159ZM613.201 341.159V342.159H614.203L614.201 341.157L613.201 341.159ZM102.953 341.637H101.953V342.637H102.953V341.637ZM138.703 341.637V342.637H139.703V341.637H138.703ZM577.927 341.636H576.927V342.636H577.927V341.636ZM613.677 341.636V342.636H614.677V341.636H613.677ZM104.429 341.161C104.49 307.934 111.056 275.04 123.755 244.334L121.907 243.57C109.108 274.517 102.491 307.669 102.429 341.157L104.429 341.161ZM138.228 340.159H103.429V342.159H138.228V340.159ZM154.057 256.906C143.007 283.624 137.29 312.245 137.228 341.157L139.228 341.161C139.29 312.51 144.955 284.147 155.905 257.67L154.057 256.906ZM201.982 185.075C181.448 205.642 165.163 230.05 154.057 256.906L155.905 257.67C166.911 231.057 183.049 206.869 203.397 186.488L201.982 185.075ZM273.708 137.079C246.878 148.211 222.505 164.52 201.982 185.075L203.397 186.488C223.735 166.119 247.887 149.957 274.474 138.926L273.708 137.079ZM358.315 120.225C329.279 120.226 300.528 125.953 273.708 137.079L274.474 138.926C301.051 127.901 329.542 122.226 358.315 122.225V120.225ZM442.922 137.079C416.102 125.953 387.351 120.226 358.315 120.225V122.225C387.086 122.225 415.575 127.9 442.156 138.926L442.922 137.079ZM514.648 185.075C494.125 164.52 469.752 148.211 442.922 137.079L442.156 138.926C468.743 149.957 492.896 166.119 513.233 186.488L514.648 185.075ZM562.574 256.906C551.467 230.05 535.182 205.642 514.648 185.075L513.233 186.488C533.582 206.87 549.719 231.057 560.725 257.671L562.574 256.906ZM579.402 341.157C579.34 312.245 573.624 283.624 562.574 256.906L560.725 257.671C571.675 284.148 577.341 312.51 577.402 341.161L579.402 341.157ZM613.201 340.159H578.402V342.159H613.201V340.159ZM592.875 244.334C605.574 275.04 612.14 307.934 612.201 341.161L614.201 341.157C614.139 307.669 607.523 274.517 594.724 243.57L592.875 244.334ZM537.839 161.846C561.42 185.464 580.121 213.493 592.875 244.334L594.724 243.57C581.869 212.487 563.021 184.237 539.255 160.433L537.839 161.846ZM455.473 106.729C486.283 119.512 514.272 138.241 537.839 161.846L539.255 160.433C515.501 136.642 487.292 117.766 456.239 104.882L455.473 106.729ZM358.315 87.3754C391.656 87.3754 424.67 93.9534 455.473 106.73L456.239 104.882C425.198 92.0049 391.922 85.377 358.315 85.3764V87.3754ZM261.157 106.73C291.956 93.9537 324.972 87.3759 358.315 87.3754V85.3764C324.709 85.377 291.432 92.0059 260.391 104.883L261.157 106.73ZM178.791 161.846C202.359 138.241 230.347 119.512 261.157 106.729L260.391 104.883C229.339 117.766 201.129 136.642 177.376 160.432L178.791 161.846ZM123.755 244.334C136.509 213.493 155.21 185.464 178.791 161.846L177.376 160.432C153.61 184.236 134.761 212.486 121.907 243.57L123.755 244.334ZM593.315 244.152C606.038 274.915 612.616 307.871 612.677 341.161L614.677 341.157C614.616 307.606 607.986 274.392 595.163 243.387L593.315 244.152ZM538.176 161.509C561.801 185.172 580.537 213.253 593.315 244.152L595.163 243.387C582.285 212.246 563.402 183.944 539.591 160.096L538.176 161.509ZM455.655 106.289C486.523 119.096 514.564 137.86 538.176 161.509L539.591 160.096C515.794 136.261 487.532 117.35 456.421 104.443L455.655 106.289ZM358.315 86.8994C391.718 86.8994 424.794 93.4874 455.655 106.289L456.421 104.443C425.322 91.5416 391.984 84.8992 358.315 84.8984V86.8994ZM260.975 106.29C291.831 93.4898 324.909 86.8998 358.315 86.8994V84.8984C324.649 84.8984 291.312 91.5394 260.209 104.442L260.975 106.29ZM178.454 161.51C202.066 137.861 230.108 119.097 260.975 106.29L260.209 104.442C229.099 117.35 200.837 136.261 177.039 160.096L178.454 161.51ZM123.315 244.152C136.093 213.253 154.829 185.173 178.454 161.51L177.039 160.096C153.229 183.944 134.346 212.247 121.467 243.388L123.315 244.152ZM103.953 341.161C104.014 307.871 110.592 274.915 123.315 244.152L121.467 243.388C108.645 274.393 102.016 307.606 101.953 341.157L103.953 341.161ZM103.953 341.636V341.161L101.953 341.157V341.636H103.953ZM154.496 257.088C143.409 283.897 137.703 312.625 137.703 341.636H139.703C139.703 312.888 145.357 284.42 156.344 257.853L154.496 257.088ZM202.319 185.412C181.829 205.935 165.579 230.29 154.496 257.088L156.344 257.853C167.327 231.297 183.43 207.163 203.734 186.826L202.319 185.412ZM273.89 137.52C247.118 148.627 222.798 164.901 202.319 185.412L203.734 186.826C224.028 166.501 248.128 150.374 274.657 139.367L273.89 137.52ZM358.315 120.703C329.341 120.704 300.652 126.418 273.89 137.52L274.657 139.367C301.176 128.366 329.605 122.703 358.315 122.702V120.703ZM442.74 137.519C415.978 126.417 387.289 120.704 358.315 120.703V122.702C387.023 122.702 415.451 128.365 441.974 139.368L442.74 137.519ZM514.312 185.413C493.833 164.903 469.512 148.627 442.74 137.519L441.974 139.368C468.503 150.375 492.603 166.501 512.896 186.826L514.312 185.413ZM562.134 257.089C551.051 230.291 534.802 205.936 514.312 185.413L512.896 186.826C533.201 207.163 549.303 231.297 560.286 257.853L562.134 257.089ZM578.927 341.636C578.927 312.623 573.221 283.893 562.134 257.089L560.286 257.853C571.273 284.42 576.927 312.888 576.927 341.636H578.927ZM612.677 341.161V341.636H614.677V341.157L612.677 341.161ZM138.703 340.636H102.953V342.636H138.703V340.636ZM613.677 340.636H577.927V342.636H613.677V340.636Z" fill="url(#paint6_linear_541_502)"/>
</g>
<mask id="mask3_541_502" style="mask-type:luminance" maskUnits="userSpaceOnUse" x="171" y="154" width="375" height="188">
<path fill-rule="evenodd" clip-rule="evenodd" d="M186.129 270.177C176.808 292.729 171.988 316.886 171.943 341.287H197.388C197.433 320.233 201.594 299.391 209.637 279.933C217.721 260.377 229.575 242.603 244.522 227.624C259.459 212.657 277.2 200.78 296.731 192.673C316.252 184.571 337.179 180.4 358.315 180.399C379.45 180.4 400.378 184.571 419.899 192.673C439.429 200.78 457.17 212.657 472.107 227.624C487.055 242.603 498.908 260.377 506.992 279.933C515.035 299.391 519.196 320.233 519.242 341.287H544.686C544.641 316.886 539.822 292.728 530.5 270.177C521.139 247.529 507.411 226.945 490.1 209.598C472.801 192.264 452.255 178.509 429.636 169.12C407.029 159.737 382.792 154.907 358.315 154.906C333.84 154.906 309.605 159.736 286.993 169.12C264.375 178.509 243.829 192.264 226.53 209.598C209.219 226.945 195.491 247.529 186.129 270.177ZM545.034 341.287C544.989 316.84 540.161 292.638 530.822 270.044C521.443 247.354 507.689 226.731 490.346 209.351C473.015 191.984 452.43 178.204 429.769 168.797C407.12 159.397 382.838 154.558 358.315 154.557C333.792 154.558 309.51 159.397 286.86 168.797C264.199 178.203 243.615 191.984 226.284 209.351C208.94 226.731 195.187 247.354 185.808 270.044C176.469 292.638 171.64 316.84 171.595 341.287V341.636H197.736C197.735 320.511 201.888 299.591 209.959 280.067C218.025 260.553 229.853 242.818 244.768 227.871C259.673 212.935 277.375 201.084 296.864 192.995C316.343 184.91 337.225 180.749 358.315 180.749C379.405 180.749 400.287 184.91 419.766 192.995C439.254 201.084 456.956 212.936 471.861 227.871C486.777 242.817 498.605 260.553 506.671 280.067C514.741 299.591 518.894 320.511 518.894 341.636H545.035L545.034 341.287Z" fill="white"/>
</mask>
<g mask="url(#mask3_541_502)">
<path d="M171.943 341.287L170.943 341.285L170.941 342.287H171.943V341.287ZM197.388 341.287V342.287H198.386L198.388 341.289L197.388 341.287ZM519.242 341.287L518.242 341.289L518.244 342.287H519.242V341.287ZM544.686 341.287V342.287H545.688L545.686 341.285L544.686 341.287ZM171.595 341.635H170.595V342.635H171.595V341.635ZM197.736 341.635V342.635H198.736V341.635H197.736ZM518.894 341.636H517.894V342.636H518.894V341.636ZM545.035 341.636V342.636H546.035V341.636H545.035ZM172.943 341.289C172.988 317.018 177.781 292.99 187.054 270.559L185.205 269.795C175.834 292.467 170.989 316.753 170.943 341.285L172.943 341.289ZM197.388 340.287H171.943V342.287H197.388V340.287ZM208.713 279.551C200.62 299.129 196.433 320.101 196.388 341.285L198.388 341.289C198.432 320.366 202.568 299.652 210.561 280.315L208.713 279.551ZM243.814 226.918C228.774 241.99 216.847 259.874 208.713 279.551L210.561 280.315C218.595 260.881 230.375 243.217 245.23 228.331L243.814 226.918ZM296.347 191.749C276.695 199.906 258.844 211.857 243.814 226.918L245.23 228.331C260.074 213.456 277.705 201.653 297.114 193.596L296.347 191.749ZM358.315 179.399C337.048 179.4 315.99 183.597 296.347 191.749L297.114 193.596C316.513 185.545 337.311 181.4 358.315 181.399V179.399ZM420.282 191.749C400.64 183.597 379.582 179.4 358.315 179.399V181.399C379.316 181.399 400.112 185.544 419.516 193.596L420.282 191.749ZM472.815 226.918C457.785 211.857 439.934 199.906 420.282 191.749L419.516 193.596C438.925 201.653 456.555 213.457 471.4 228.331L472.815 226.918ZM507.916 279.551C499.783 259.874 487.856 241.989 472.815 226.918L471.4 228.331C486.255 243.217 498.035 260.881 506.068 280.315L507.916 279.551ZM520.242 341.285C520.197 320.101 516.009 299.129 507.916 279.551L506.068 280.315C514.061 299.652 518.197 320.366 518.242 341.289L520.242 341.285ZM544.686 340.287H519.242V342.287H544.686V340.287ZM529.576 270.559C538.848 292.99 543.642 317.018 543.686 341.289L545.686 341.285C545.641 316.753 540.796 292.467 531.424 269.795L529.576 270.559ZM489.392 210.304C506.61 227.558 520.264 248.033 529.576 270.559L531.424 269.795C522.012 247.026 508.211 226.331 490.807 208.891L489.392 210.304ZM429.253 170.044C451.75 179.382 472.186 193.063 489.392 210.304L490.807 208.891C473.416 191.464 452.759 177.635 430.02 168.196L429.253 170.044ZM358.315 155.906C382.658 155.906 406.763 160.711 429.253 170.044L430.02 168.196C407.291 158.763 382.924 153.907 358.315 153.906V155.906ZM287.377 170.043C309.863 160.711 333.969 155.907 358.315 155.906V153.906C333.706 153.907 309.339 158.763 286.61 168.196L287.377 170.043ZM227.238 210.304C244.444 193.063 264.88 179.381 287.377 170.043L286.61 168.196C263.87 177.635 243.214 191.464 225.822 208.891L227.238 210.304ZM187.054 270.559C196.365 248.032 210.019 227.558 227.238 210.304L225.822 208.891C208.419 226.331 194.617 247.026 185.205 269.795L187.054 270.559ZM529.897 270.426C539.187 292.899 543.99 316.972 544.034 341.289L546.034 341.285C545.989 316.708 541.135 292.376 531.746 269.662L529.897 270.426ZM489.638 210.057C506.889 227.344 520.568 247.857 529.897 270.426L531.746 269.662C522.317 246.85 508.49 226.117 491.054 208.645L489.638 210.057ZM429.386 169.721C451.925 179.077 472.399 192.784 489.638 210.057L491.054 208.645C473.63 191.186 452.935 177.331 430.153 167.874L429.386 169.721ZM358.315 155.557C382.704 155.557 406.854 160.37 429.386 169.721L430.153 167.874C407.382 158.423 382.97 153.558 358.315 153.557V155.557ZM287.243 169.72C309.771 160.37 333.923 155.558 358.315 155.557V153.557C333.66 153.558 309.248 158.423 286.477 167.874L287.243 169.72ZM226.992 210.057C244.23 192.784 264.704 179.076 287.243 169.72L286.477 167.874C263.695 177.331 243 191.185 225.576 208.645L226.992 210.057ZM186.732 270.426C196.061 247.857 209.741 227.344 226.992 210.057L225.576 208.645C208.139 226.117 194.313 246.85 184.884 269.662L186.732 270.426ZM172.595 341.289C172.64 316.972 177.442 292.899 186.732 270.426L184.884 269.662C175.495 292.376 170.64 316.708 170.595 341.285L172.595 341.289ZM172.595 341.636V341.289L170.595 341.285V341.636H172.595ZM209.035 279.684C200.914 299.329 196.735 320.38 196.736 341.636H198.736C198.736 320.639 202.863 299.847 210.883 280.449L209.035 279.684ZM244.06 227.164C229.052 242.204 217.151 260.049 209.035 279.684L210.883 280.449C218.899 261.056 230.653 243.43 245.476 228.576L244.06 227.164ZM296.48 192.071C276.871 200.211 259.058 212.136 244.06 227.164L245.476 228.576C260.288 213.734 277.88 201.957 297.247 193.918L296.48 192.071ZM358.315 179.747C337.093 179.748 316.08 183.936 296.48 192.071L297.247 193.918C316.604 185.884 337.357 181.749 358.315 181.748V179.747ZM420.149 192.071C400.549 183.936 379.536 179.748 358.315 179.747V181.748C379.271 181.748 400.022 185.882 419.382 193.917L420.149 192.071ZM472.569 227.164C457.571 212.136 439.758 200.211 420.149 192.071L419.382 193.917C438.749 201.956 456.342 213.735 471.154 228.577L472.569 227.164ZM507.595 279.685C499.479 260.05 487.577 242.204 472.569 227.164L471.154 228.577C485.977 243.431 497.731 261.056 505.746 280.449L507.595 279.685ZM519.894 341.636C519.894 320.377 515.715 299.326 507.595 279.685L505.746 280.449C513.767 299.852 517.894 320.642 517.894 341.636H519.894ZM544.034 341.289L544.035 341.636H546.035L546.034 341.285L544.034 341.289ZM197.736 340.636H171.595V342.636H197.736V340.636ZM545.035 340.636H518.894V342.636H545.035V340.636Z" fill="url(#paint7_linear_541_502)"/>
</g>
<mask id="mask4_541_502" style="mask-type:luminance" maskUnits="userSpaceOnUse" x="232" y="215" width="252" height="127">
<path fill-rule="evenodd" clip-rule="evenodd" d="M242.46 293.516C236.187 308.703 232.945 324.97 232.915 341.401H250.035C250.065 327.224 252.865 313.189 258.277 300.085C263.715 286.918 271.691 274.949 281.749 264.86C291.798 254.782 303.735 246.784 316.878 241.324C330.011 235.868 344.093 233.06 358.315 233.06C372.537 233.06 386.618 235.868 399.752 241.324C412.894 246.784 424.831 254.782 434.88 264.86C444.939 274.949 452.914 286.918 458.352 300.085C463.764 313.189 466.564 327.224 466.594 341.401H483.715C483.685 324.97 480.442 308.703 474.17 293.516C467.872 278.267 458.635 264.405 446.986 252.721C435.348 241.05 421.524 231.787 406.303 225.463C391.093 219.145 374.785 215.893 358.314 215.893C341.844 215.893 325.536 219.145 310.326 225.463C295.105 231.788 281.281 241.05 269.643 252.721C257.994 264.405 248.758 278.267 242.46 293.516ZM483.949 341.401C483.919 324.939 480.67 308.642 474.386 293.426C468.077 278.148 458.823 264.261 447.152 252.555C435.493 240.862 421.642 231.582 406.393 225.246C391.154 218.917 374.816 215.658 358.314 215.658C341.813 215.658 325.475 218.917 310.236 225.246C294.987 231.582 281.137 240.862 269.478 252.555C257.806 264.26 248.553 278.148 242.244 293.426C235.959 308.642 232.71 324.939 232.68 341.401V341.636H250.269C250.269 327.408 253.064 313.32 258.494 300.175C263.92 287.036 271.878 275.093 281.915 265.026C291.942 254.971 303.853 246.99 316.967 241.541C330.072 236.098 344.124 233.295 358.314 233.295C372.505 233.295 386.557 236.098 399.662 241.541C412.776 246.99 424.688 254.97 434.715 265.026C444.752 275.093 452.71 287.036 458.136 300.175C463.566 313.324 466.361 327.411 466.36 341.636H483.949V341.401Z" fill="white"/>
</mask>
<g mask="url(#mask4_541_502)">
<path d="M232.915 341.401L231.915 341.399L231.913 342.401H232.915V341.401ZM250.035 341.401V342.401H251.033L251.035 341.403L250.035 341.401ZM466.594 341.401L465.594 341.403L465.597 342.401H466.594V341.401ZM483.715 341.401V342.401H484.717L484.715 341.399L483.715 341.401ZM232.68 341.636H231.68V342.636H232.68V341.636ZM250.269 341.636V342.636H251.269V341.636H250.269ZM466.36 341.636H465.36V342.636H466.36V341.636ZM483.949 341.636V342.636H484.949V341.636H483.949ZM233.915 341.403C233.945 325.102 237.161 308.964 243.384 293.897L241.536 293.134C235.213 308.442 231.945 324.838 231.915 341.399L233.915 341.403ZM250.035 340.401H232.915V342.401H250.035V340.401ZM257.353 299.703C251.891 312.928 249.065 327.092 249.035 341.399L251.035 341.403C251.065 327.356 253.838 313.451 259.201 300.467L257.353 299.703ZM281.041 264.154C270.89 274.336 262.841 286.415 257.353 299.703L259.201 300.467C264.589 287.421 272.491 275.563 282.457 265.567L281.041 264.154ZM316.494 240.4C303.23 245.911 291.183 253.983 281.041 264.154L282.457 265.567C292.413 255.582 304.24 247.657 317.261 242.247L316.494 240.4ZM358.315 232.059C343.961 232.06 329.749 234.894 316.494 240.4L317.261 242.247C330.273 236.842 344.225 234.06 358.315 234.059V232.059ZM400.135 240.4C386.88 234.894 372.668 232.06 358.315 232.059V234.059C372.403 234.059 386.352 236.841 399.368 242.247L400.135 240.4ZM435.588 264.154C425.447 253.983 413.399 245.911 400.135 240.4L399.368 242.247C412.39 247.657 424.216 255.582 434.172 265.567L435.588 264.154ZM459.277 299.703C453.789 286.415 445.739 274.336 435.588 264.154L434.172 265.567C444.138 275.562 452.04 287.421 457.428 300.467L459.277 299.703ZM467.594 341.399C467.564 327.092 464.739 312.928 459.277 299.703L457.428 300.467C462.79 313.451 465.564 327.356 465.594 341.403L467.594 341.399ZM483.715 340.401H466.594V342.401H483.715V340.401ZM473.245 293.897C479.468 308.964 482.685 325.102 482.715 341.403L484.715 341.399C484.685 324.838 481.416 308.442 475.094 293.134L473.245 293.897ZM446.278 253.427C457.834 265.018 466.997 278.769 473.245 293.897L475.094 293.134C468.746 277.763 459.436 263.792 447.694 252.015L446.278 253.427ZM405.92 226.387C421.019 232.661 434.733 241.849 446.278 253.427L447.694 252.015C435.964 240.25 422.029 230.914 406.687 224.54L405.92 226.387ZM358.315 216.892C374.654 216.893 390.831 220.119 405.92 226.387L406.687 224.54C391.355 218.171 374.917 214.893 358.315 214.892V216.892ZM310.71 226.387C325.798 220.119 341.976 216.893 358.315 216.892V214.892C341.715 214.892 325.278 218.17 309.943 224.54L310.71 226.387ZM270.351 253.427C281.896 241.849 295.611 232.661 310.71 226.387L309.943 224.54C294.6 230.914 280.665 240.25 268.935 252.015L270.351 253.427ZM243.384 293.897C249.632 278.769 258.795 265.018 270.351 253.427L268.935 252.015C257.193 263.792 247.883 277.764 241.536 293.134L243.384 293.897ZM473.462 293.808C479.697 308.903 482.919 325.072 482.949 341.403L484.949 341.399C484.919 324.807 481.644 308.38 475.31 293.044L473.462 293.808ZM446.444 253.261C458.022 264.874 467.202 278.652 473.462 293.808L475.31 293.044C468.951 277.645 459.623 263.648 447.86 251.849L446.444 253.261ZM406.009 226.17C421.137 232.455 434.877 241.661 446.444 253.261L447.86 251.849C436.108 240.063 422.147 230.709 406.777 224.323L406.009 226.17ZM358.315 216.657C374.682 216.657 390.888 219.889 406.009 226.17L406.777 224.323C391.417 217.943 374.948 214.658 358.315 214.657V216.657ZM310.62 226.17C325.737 219.89 341.945 216.658 358.315 216.657V214.657C341.682 214.658 325.213 217.942 309.853 224.323L310.62 226.17ZM270.186 253.261C281.752 241.661 295.492 232.455 310.62 226.17L309.853 224.323C294.482 230.709 280.522 240.063 268.77 251.849L270.186 253.261ZM243.168 293.807C249.427 278.651 258.607 264.874 270.186 253.261L268.77 251.849C257.006 263.647 247.679 277.645 241.319 293.044L243.168 293.807ZM233.68 341.403C233.71 325.071 236.933 308.903 243.168 293.807L241.319 293.044C234.985 308.38 231.711 324.807 231.68 341.399L233.68 341.403ZM233.68 341.636V341.403L231.68 341.399V341.636H233.68ZM257.569 299.793C252.088 313.063 249.268 327.28 249.269 341.636H251.269C251.269 327.539 254.038 313.58 259.418 300.557L257.569 299.793ZM281.207 264.32C271.077 274.48 263.046 286.533 257.569 299.793L259.418 300.557C264.794 287.54 272.679 275.707 282.623 265.733L281.207 264.32ZM316.584 240.617C303.349 246.117 291.327 254.171 281.207 264.32L282.623 265.733C292.557 255.77 304.358 247.863 317.351 242.464L316.584 240.617ZM358.315 232.294C343.992 232.295 329.811 235.123 316.584 240.617L317.351 242.464C330.335 237.071 344.256 234.295 358.315 234.294V232.294ZM400.046 240.617C386.819 235.123 372.638 232.295 358.315 232.294V234.294C372.372 234.294 386.291 237.07 399.278 242.464L400.046 240.617ZM435.423 264.32C425.303 254.171 413.281 246.117 400.046 240.617L399.278 242.464C412.271 247.863 424.072 255.77 434.007 265.733L435.423 264.32ZM459.06 299.793C453.583 286.533 445.552 274.48 435.423 264.32L434.007 265.733C443.951 275.707 451.836 287.54 457.212 300.557L459.06 299.793ZM467.36 341.636C467.36 327.277 464.54 313.059 459.06 299.793L457.212 300.557C462.592 313.585 465.36 327.542 465.36 341.636H467.36ZM482.949 341.403V341.636H484.949V341.399L482.949 341.403ZM250.269 340.636H232.68V342.636H250.269V340.636ZM483.949 340.636H466.36V342.636H483.949V340.636Z" fill="url(#paint8_linear_541_502)"/>
</g>
<mask id="mask5_541_502" style="mask-type:luminance" maskUnits="userSpaceOnUse" x="278" y="261" width="161" height="81">
<path fill-rule="evenodd" clip-rule="evenodd" d="M284.272 310.839C280.263 320.561 278.191 330.971 278.172 341.486H289.113C289.132 332.414 290.922 323.432 294.381 315.044C297.855 306.619 302.952 298.959 309.382 292.5C315.802 286.052 323.431 280.933 331.832 277.436C340.225 273.946 349.225 272.149 358.314 272.149C367.404 272.149 376.404 273.946 384.797 277.436C393.199 280.932 400.828 286.051 407.248 292.5C413.678 298.959 418.775 306.619 422.249 315.044C425.708 323.432 427.497 332.414 427.516 341.486H438.458C438.439 330.971 436.366 320.56 432.357 310.839C428.334 301.082 422.431 292.211 414.984 284.731C407.549 277.263 398.714 271.334 388.984 267.285C379.264 263.243 368.841 261.161 358.314 261.161C347.788 261.161 337.365 263.243 327.645 267.285C317.915 271.335 309.08 277.263 301.645 284.731C294.198 292.211 288.295 301.082 284.272 310.839ZM438.607 341.486C438.588 330.951 436.513 320.521 432.496 310.781C428.464 301.006 422.55 292.118 415.09 284.624C407.641 277.142 398.789 271.203 389.041 267.147C379.304 263.096 368.861 261.01 358.315 261.009C347.768 261.01 337.326 263.096 327.588 267.147C317.84 271.203 308.988 277.142 301.539 284.624C294.079 292.118 288.165 301.006 284.134 310.781C280.118 320.521 278.041 330.951 278.022 341.486V341.636H289.263C289.263 332.533 291.048 323.517 294.519 315.101C297.986 306.694 303.072 299.051 309.488 292.606C315.894 286.172 323.507 281.064 331.89 277.575C340.264 274.092 349.245 272.298 358.315 272.297C367.385 272.298 376.366 274.092 384.74 277.575C393.123 281.064 400.736 286.172 407.142 292.606C413.558 299.051 418.644 306.694 422.11 315.101C425.581 323.517 427.366 332.533 427.366 341.636H438.607V341.486Z" fill="white"/>
</mask>
<g mask="url(#mask5_541_502)">
<path d="M278.172 341.486L277.172 341.484L277.17 342.486H278.172V341.486ZM289.113 341.486V342.486H290.111L290.113 341.488L289.113 341.486ZM427.516 341.486L426.516 341.488L426.518 342.486H427.516V341.486ZM438.458 341.486V342.486H439.46L439.458 341.484L438.458 341.486ZM278.022 341.636H277.022V342.636H278.022V341.636ZM289.263 341.636V342.636H290.263V341.636H289.263ZM427.366 341.636H426.366V342.636H427.366V341.636ZM438.607 341.636V342.636H439.607V341.636H438.607ZM279.172 341.487C279.191 331.102 281.237 320.821 285.197 311.22L283.348 310.458C279.289 320.3 277.191 330.839 277.172 341.484L279.172 341.487ZM289.113 340.486H278.172V342.486H289.113V340.486ZM293.457 314.662C289.948 323.17 288.132 332.281 288.113 341.483L290.113 341.488C290.132 332.546 291.896 323.693 295.305 315.425L293.457 314.662ZM308.673 291.794C302.151 298.346 296.981 306.116 293.457 314.662L295.305 315.425C298.729 307.121 303.753 299.571 310.091 293.205L308.673 291.794ZM331.448 276.513C322.925 280.06 315.186 285.253 308.673 291.794L310.091 293.205C316.418 286.85 323.937 281.805 332.217 278.36L331.448 276.513ZM358.315 271.147C349.093 271.148 339.962 272.971 331.448 276.513L332.217 278.36C340.488 274.919 349.357 273.148 358.315 273.147V271.147ZM385.181 276.513C376.667 272.971 367.536 271.148 358.315 271.147V273.147C367.273 273.148 376.142 274.919 384.413 278.36L385.181 276.513ZM407.956 291.794C401.443 285.252 393.704 280.06 385.181 276.513L384.413 278.36C392.693 281.805 400.212 286.85 406.539 293.205L407.956 291.794ZM423.173 314.662C419.649 306.116 414.478 298.346 407.956 291.794L406.539 293.205C412.876 299.571 417.9 307.121 421.324 315.425L423.173 314.662ZM428.516 341.483C428.496 332.281 426.681 323.17 423.173 314.662L421.324 315.425C424.734 323.693 426.497 332.546 426.516 341.488L428.516 341.483ZM438.458 340.486H427.516V342.486H438.458V340.486ZM431.433 311.22C435.392 320.821 437.439 331.102 437.458 341.487L439.458 341.484C439.439 330.839 437.341 320.3 433.282 310.458L431.433 311.22ZM414.276 285.436C421.63 292.823 427.459 301.584 431.433 311.22L433.282 310.458C429.208 300.58 423.232 291.598 415.693 284.025L414.276 285.436ZM388.6 268.209C398.208 272.207 406.934 278.061 414.276 285.436L415.693 284.025C408.165 276.464 399.219 270.462 389.368 266.362L388.6 268.209ZM358.315 262.16C368.71 262.161 379.002 264.217 388.6 268.209L389.368 266.362C379.527 262.268 368.974 260.161 358.315 260.16V262.16ZM328.029 268.209C337.627 264.216 347.92 262.161 358.315 262.16V260.16C347.656 260.161 337.102 262.268 327.261 266.362L328.029 268.209ZM302.354 285.436C309.696 278.062 318.421 272.207 328.029 268.209L327.261 266.362C317.41 270.462 308.464 276.464 300.936 284.025L302.354 285.436ZM285.197 311.22C289.17 301.584 295 292.823 302.354 285.436L300.936 284.025C293.397 291.598 287.421 300.58 283.348 310.458L285.197 311.22ZM431.571 311.163C435.538 320.782 437.588 331.083 437.607 341.487L439.607 341.484C439.588 330.819 437.487 320.26 433.42 310.4L431.571 311.163ZM414.382 285.33C421.75 292.731 427.59 301.509 431.571 311.163L433.42 310.4C429.339 300.504 423.352 291.506 415.799 283.919L414.382 285.33ZM388.657 268.07C398.284 272.076 407.026 277.941 414.382 285.33L415.799 283.919C408.257 276.344 399.294 270.33 389.425 266.223L388.657 268.07ZM358.315 262.009C368.73 262.01 379.041 264.07 388.657 268.07L389.425 266.223C379.566 262.122 368.993 260.01 358.315 260.009V262.009ZM327.972 268.07C337.588 264.07 347.9 262.01 358.315 262.009V260.009C347.636 260.01 337.063 262.122 327.204 266.223L327.972 268.07ZM302.248 285.33C309.604 277.941 318.345 272.076 327.972 268.07L327.204 266.223C317.335 270.33 308.373 276.344 300.831 283.919L302.248 285.33ZM285.058 311.163C289.04 301.509 294.88 292.732 302.248 285.33L300.831 283.919C293.278 291.506 287.29 300.503 283.209 310.4L285.058 311.163ZM279.022 341.487C279.041 331.083 281.091 320.782 285.058 311.163L283.209 310.4C279.143 320.26 277.042 330.819 277.022 341.484L279.022 341.487ZM279.022 341.636V341.487L277.022 341.484V341.636H279.022ZM293.595 314.72C290.074 323.257 288.263 332.402 288.263 341.636H290.263C290.262 332.663 292.023 323.778 295.444 315.482L293.595 314.72ZM308.779 291.9C302.27 298.438 297.111 306.192 293.595 314.72L295.444 315.482C298.86 307.197 303.873 299.664 310.196 293.312L308.779 291.9ZM331.506 276.652C323.001 280.191 315.278 285.372 308.779 291.9L310.196 293.312C316.51 286.971 324.012 281.936 332.274 278.498L331.506 276.652ZM358.315 271.297C349.115 271.297 340.005 273.117 331.506 276.652L332.274 278.498C340.527 275.065 349.377 273.298 358.315 273.297V271.297ZM385.124 276.652C376.628 273.118 367.517 271.298 358.315 271.297V273.297C367.253 273.298 376.103 275.065 384.356 278.498L385.124 276.652ZM407.85 291.9C401.351 285.372 393.629 280.191 385.124 276.652L384.356 278.498C392.618 281.936 400.12 286.97 406.433 293.312L407.85 291.9ZM423.035 314.72C419.518 306.192 414.359 298.438 407.85 291.9L406.433 293.312C412.757 299.664 417.77 307.196 421.186 315.482L423.035 314.72ZM428.366 341.636C428.367 332.402 426.556 323.257 423.035 314.72L421.186 315.482C424.607 323.778 426.366 332.664 426.366 341.636H428.366ZM437.607 341.487V341.636H439.607V341.484L437.607 341.487ZM289.263 340.636H278.022V342.636H289.263V340.636ZM438.607 340.636H427.366V342.636H438.607V340.636Z" fill="url(#paint9_linear_541_502)"/>
</g>
<g filter="url(#filter0_f_541_502)">
<path d="M358.63 514.873C431.446 514.873 490.475 455.874 490.475 383.094C490.475 310.315 431.446 251.315 358.63 251.315C285.814 251.315 226.785 310.315 226.785 383.094C226.785 455.874 285.814 514.873 358.63 514.873Z" fill="#003BFF"/>
</g>
<path d="M-11 -8.16638H728V341.834H-11V-8.16638Z" fill="url(#paint10_radial_541_502)"/>
<path d="M1 -14.1664H717V341.834H1V-14.1664Z" fill="url(#paint11_linear_541_502)"/>
</g>
<defs>
<filter id="filter0_f_541_502" x="-136.115" y="-111.585" width="989.49" height="989.358" filterUnits="userSpaceOnUse" color-interpolation-filters="sRGB">
<feFlood flood-opacity="0" result="BackgroundImageFix"/>
<feBlend mode="normal" in="SourceGraphic" in2="BackgroundImageFix" result="shape"/>
<feGaussianBlur stdDeviation="181.45" result="effect1_foregroundBlur_541_502"/>
</filter>
<linearGradient id="paint0_linear_541_502" x1="358.315" y1="3.38239" x2="358.315" y2="341.321" gradientUnits="userSpaceOnUse">
<stop offset="0.304" stop-color="#00094D"/>
<stop offset="1" stop-color="#000633" stop-opacity="0"/>
</linearGradient>
<linearGradient id="paint1_linear_541_502" x1="358.315" y1="85.8984" x2="358.315" y2="341.636" gradientUnits="userSpaceOnUse">
<stop offset="0.304" stop-color="#00094D"/>
<stop offset="1" stop-color="#000633" stop-opacity="0"/>
</linearGradient>
<linearGradient id="paint2_linear_541_502" x1="358.315" y1="154.557" x2="358.315" y2="341.636" gradientUnits="userSpaceOnUse">
<stop offset="0.304" stop-color="#00094D"/>
<stop offset="1" stop-color="#000633" stop-opacity="0"/>
</linearGradient>
<linearGradient id="paint3_linear_541_502" x1="358.315" y1="215.657" x2="358.315" y2="341.636" gradientUnits="userSpaceOnUse">
<stop offset="0.304" stop-color="#00094D"/>
<stop offset="1" stop-color="#000633" stop-opacity="0"/>
</linearGradient>
<linearGradient id="paint4_linear_541_502" x1="358.315" y1="261.009" x2="358.315" y2="341.636" gradientUnits="userSpaceOnUse">
<stop offset="0.304" stop-color="#00094D"/>
<stop offset="1" stop-color="#000633" stop-opacity="0"/>
</linearGradient>
<linearGradient id="paint5_linear_541_502" x1="358.315" y1="3.38232" x2="358.315" y2="341.321" gradientUnits="userSpaceOnUse">
<stop offset="0.304" stop-color="#00094D"/>
<stop offset="1" stop-color="#000633" stop-opacity="0"/>
</linearGradient>
<linearGradient id="paint6_linear_541_502" x1="358.315" y1="85.8984" x2="358.315" y2="341.636" gradientUnits="userSpaceOnUse">
<stop offset="0.304" stop-color="#00094D"/>
<stop offset="1" stop-color="#000633" stop-opacity="0"/>
</linearGradient>
<linearGradient id="paint7_linear_541_502" x1="358.315" y1="154.557" x2="358.315" y2="341.636" gradientUnits="userSpaceOnUse">
<stop offset="0.304" stop-color="#00094D"/>
<stop offset="1" stop-color="#000633" stop-opacity="0"/>
</linearGradient>
<linearGradient id="paint8_linear_541_502" x1="358.315" y1="215.657" x2="358.315" y2="341.636" gradientUnits="userSpaceOnUse">
<stop offset="0.304" stop-color="#00094D"/>
<stop offset="1" stop-color="#000633" stop-opacity="0"/>
</linearGradient>
<linearGradient id="paint9_linear_541_502" x1="358.315" y1="261.009" x2="358.315" y2="341.636" gradientUnits="userSpaceOnUse">
<stop offset="0.304" stop-color="#00094D"/>
<stop offset="1" stop-color="#000633" stop-opacity="0"/>
</linearGradient>
<radialGradient id="paint10_radial_541_502" cx="0" cy="0" r="1" gradientUnits="userSpaceOnUse" gradientTransform="translate(358.705 149.591) rotate(90) scale(262.984 555.271)">
<stop offset="0.093" stop-color="#00031C" stop-opacity="0"/>
<stop offset="0.716" stop-color="#00031C"/>
</radialGradient>
<linearGradient id="paint11_linear_541_502" x1="359" y1="-20.8418" x2="359" y2="377.793" gradientUnits="userSpaceOnUse">
<stop offset="0.407" stop-color="#00031C" stop-opacity="0"/>
<stop offset="1" stop-color="#00031C"/>
</linearGradient>
</defs>
</svg>
